<?xml version="1.0" encoding="utf-8"?>
<!-- Generator: Adobe Illustrator 15.0.0, SVG Export Plug-In . SVG Version: 6.00 Build 0)  -->
<!DOCTYPE svg PUBLIC "-//W3C//DTD SVG 1.1//EN" "http://www.w3.org/Graphics/SVG/1.1/DTD/svg11.dtd">
<svg version="1.1" id="Layer_1" xmlns="http://www.w3.org/2000/svg" xmlns:xlink="http://www.w3.org/1999/xlink" x="0px" y="0px"
	 width="261.895px" height="275.789px" viewBox="0 0 261.895 275.789" enable-background="new 0 0 261.895 275.789"
	 xml:space="preserve">
<circle fill="#AFD137" stroke="#FBED21" stroke-width="8.5249" stroke-miterlimit="10" cx="942.756" cy="905.031" r="84.58"/>
<g id="mfECu1_2_">
	<g>
		<g>
			<path fill="#F05A2A" d="M935.554,821.791c4.849,1.598,10.024,4.084,15.098,5.926c0.416-1.656-0.903-3.104-1.55-4.514
				c-2.049-4.449-4.037-9.193-6.207-13.547c0.675-0.08,1.072,0.717,1.551,1.131c3.688,3.186,8.09,6.662,11.713,10.018
				c0.713-0.272,1.069-0.901,1.551-1.409c-1.144-3.607-2.324-7.177-3.389-10.867c2.652,1.629,5.109,3.455,7.764,5.082
				c-1.133-4.33-2.26-8.654-3.388-12.98c3.427,3.859,6.192,8.39,9.595,12.275c0.188-0.234,0.627-0.222,0.848-0.424
				c0.926-6.037,1.41-12.515,2.116-18.769c2.062,5.318,3.694,11.072,5.644,16.51c0.716-0.039,1.357-0.149,1.979-0.282
				c0.931-3.677,1.812-7.402,2.68-11.146c1.83,3.578,3.583,7.232,5.221,11.004c0.955-0.012,1.797,0.086,2.537,0.285
				c3.098-4.9,6.002-9.994,8.895-15.1c-0.288,5.403-1.517,11.086-2.118,16.649c5.565-3.889,10.588-8.323,15.805-12.561
				c-2.117,5.223-5.252,10.645-7.759,15.945c0.247,0.594,1.05,0.637,1.409,1.127c3.354-2.054,6.784-4.031,10.018-6.207
				c-0.5,2.168-1.684,5.582-2.681,8.325c-0.342,0.938-1.062,2.044-0.987,2.681c0.134,1.229,1.678,1.561,2.258,2.682
				c5.618-1.295,10.985-2.844,16.509-4.231c-4.153,3.276-8.403,6.457-12.699,9.594c0.613,1.533,2.71,1.258,4.232,1.41
				c4.799,0.483,10.315,1.182,15.235,1.555c-4.979,2.025-10.442,3.566-15.658,5.361c0.212,0.768,0.361,1.608,0.705,2.26
				c4.646,0.525,8.931,1.41,13.544,1.973c-3.932,1.992-8.326,3.525-12.415,5.363c-0.092,1.65,0.181,3.656-0.145,5.076
				c5.235,1.586,10.271,3.369,15.521,4.938c-5.183,0.839-11.237,0.804-16.508,1.552c0.83,1.516,2.476,2.323,3.81,3.387
				c3.771,3.008,7.968,6.375,11.432,9.455c-6.046-1.482-12.007-3.047-18.062-4.516c-1.33,0.965,0.682,2.297,1.553,3.245
				c2.16,2.351,5.277,5.261,6.771,7.195c-1.962-0.271-4.403-0.525-6.911-0.85c-2.354-0.304-5.238-1.177-6.914-0.845
				c-0.947,0.187-1.371,1.144-1.977,1.691c2.416,4.873,5.02,9.562,7.335,14.531c-4.15-3.371-8.003-7.045-12.274-10.299
				c-1.068,1.205-0.303,3.131-0.141,4.655c0.505,4.713,1.034,10.146,1.693,14.812c-0.592-0.279-0.938-0.996-1.269-1.551
				c-2.554-4.236-5.28-9.078-7.905-13.406c-0.75,0.051-1.183,0.414-1.832,0.567c0.045,3.994-0.248,7.648-0.144,11.707
				c-2.833-2.946-5.005-6.562-7.758-9.594c-1.134,0.045-1.995,0.359-3.246,0.283c-1.828,5.275-3.539,10.664-5.222,16.084
				c-0.94-5.029-0.618-11.324-1.693-16.225c-1.555,0.725-2.35,2.366-3.385,3.668c-2.967,3.729-6.262,7.889-9.313,11.287
				c1.431-5.531,2.71-11.214,4.233-16.646c-0.518-0.381-1.377-0.408-1.835-0.848c-2.854,2.409-5.645,5.645-8.323,7.758
				c0.449-3.734,0.88-7.49,1.411-11.146c-0.415-0.387-0.948-0.651-1.411-0.987c-3.646,3.217-6.835,6.896-10.301,10.299
				c1.558-4.465,3.759-9.506,5.643-14.107c-0.268-0.391-0.596-0.721-0.988-0.99c-5.804,2.472-11.298,5.255-17.068,7.765
				c3.938-4.76,8.099-9.306,11.99-14.115c-0.118-0.438-0.531-0.592-0.562-1.127c-4.109,1.211-8.158,2.475-12.137,3.811
				c2.277-4.071,5.531-8.391,8.184-12.559c-0.119-0.582-0.378-1.029-0.423-1.691c-4.42,0-8.841,0-13.262,0
				c4.006-1.823,8.147-3.516,12.273-5.219c-0.215-0.819-0.087-1.983-0.282-2.822c-5.07-2.028-10.359-3.848-15.521-5.784
				c5.055-0.636,10.487-0.894,15.803-1.271c0.261-0.963,0.415-2.029,0.563-3.104c-2.903-2.41-6.713-3.914-9.596-6.349
				c4.057-0.227,7.89-0.672,11.853-0.987c-1.386-2.23-3.79-3.937-5.784-5.929C939.491,825.729,937.578,823.617,935.554,821.791z"/>
		</g>
	</g>
</g>
<g>
	<circle fill="#F79420" cx="983.061" cy="847.657" r="30.237"/>
	<g>
		<path fill="#FBED21" d="M983.061,880.422c-1.582,0-3.198,0.297-4.723,0.078c-1.561-0.223-3.188-0.416-4.67-0.854
			c-1.508-0.443-2.729-1.716-4.14-2.359c-1.423-0.652-2.696-1.502-4.004-2.344c-1.312-0.847-2.5-1.789-3.676-2.81
			c-1.179-1.022-2.445-1.92-3.468-3.098c-1.021-1.176-1.776-2.525-2.623-3.84c-0.842-1.306-2.306-2.304-2.956-3.726
			c-0.646-1.41-1.15-2.959-1.593-4.467c-0.437-1.479-0.451-3.115-0.676-4.676c-0.219-1.521-0.386-3.094-0.386-4.676
			s0.368-3.123,0.587-4.646c0.225-1.561,0.924-2.961,1.359-4.441c0.441-1.508,0.604-3.069,1.25-4.479
			c0.65-1.424,0.863-3.127,1.705-4.432c0.847-1.312,2.441-2.095,3.463-3.271c1.021-1.18,2.058-2.307,3.234-3.328
			c1.176-1.021,2.168-2.303,3.479-3.149c1.306-0.843,2.967-1.035,4.391-1.688c1.408-0.646,2.74-1.436,4.246-1.877
			c1.481-0.436,2.897-1.406,4.457-1.629c1.522-0.219,3.153-0.312,4.735-0.312s3.062,1.134,4.587,1.351
			c1.561,0.225,3.321-0.517,4.803-0.078c1.507,0.441,2.666,1.85,4.075,2.494c1.424,0.651,2.976,1.029,4.281,1.871
			c1.312,0.848,2.897,1.414,4.074,2.436c1.178,1.021,2.166,2.334,3.188,3.512c1.021,1.177,2.144,2.363,2.989,3.677
			c0.843,1.307,0.963,3.049,1.615,4.473c0.646,1.408,1.724,2.685,2.166,4.189c0.437,1.481,0.274,3.131,0.5,4.688
			c0.217,1.523,0.918,3.062,0.918,4.644s-0.306,3.174-0.522,4.696c-0.224,1.562-0.539,3.129-0.976,4.609
			c-0.442,1.508-1.764,2.658-2.407,4.068c-0.652,1.422-0.697,3.153-1.539,4.459c-0.847,1.313-1.789,2.604-2.81,3.78
			c-1.021,1.179-2.352,2.08-3.527,3.104c-1.176,1.02-2.416,1.963-3.729,2.809c-1.306,0.845-2.669,1.599-4.092,2.25
			c-1.409,0.646-2.707,1.736-4.214,2.181c-1.48,0.438-3.243-0.326-4.803-0.104C986.116,879.73,984.643,880.422,983.061,880.422z
			 M983.061,819.947c-1.643,0-3.177,0.551-4.739,0.824c-1.606,0.282-3.042,0.836-4.541,1.383c-1.524,0.557-3.278,0.541-4.666,1.346
			c-1.397,0.812-2.831,1.658-4.062,2.693c-1.235,1.037-2.449,2.192-3.486,3.428c-1.035,1.229-1.773,2.736-2.585,4.137
			c-0.804,1.387-1.69,2.793-2.247,4.316c-0.548,1.5-0.189,3.25-0.475,4.856c-0.273,1.562-0.482,3.084-0.482,4.726
			c0,1.643-0.191,3.231,0.082,4.795c0.283,1.606,0.751,3.133,1.299,4.633c0.559,1.523,1.01,3.092,1.813,4.479
			c0.812,1.398,1.456,2.984,2.491,4.218c1.037,1.233,2.496,2.131,3.73,3.17c1.23,1.032,2.887,1.422,4.286,2.233
			c1.387,0.804,2.485,2.211,4.011,2.769c1.499,0.547,3.115,0.916,4.723,1.196c1.563,0.275,3.205-0.01,4.849-0.01
			c1.641,0,3.317,0.48,4.882,0.207c1.605-0.283,3.141-0.979,4.641-1.522c1.524-0.558,2.686-1.812,4.07-2.617
			c1.4-0.812,2.664-1.672,3.896-2.705c1.232-1.037,3.101-1.463,4.139-2.697c1.034-1.229,1.064-3.182,1.876-4.58
			c0.805-1.387,2.307-2.444,2.862-3.969c0.549-1.5,0.571-3.191,0.854-4.799c0.274-1.562-0.084-3.156-0.084-4.799
			c0-1.642,0.091-3.188-0.184-4.753c-0.283-1.604-0.862-3.043-1.41-4.543c-0.558-1.522-0.568-3.271-1.372-4.657
			c-0.812-1.4-2.192-2.39-3.229-3.621c-1.037-1.232-1.809-2.726-3.043-3.763c-1.23-1.034-2.871-1.469-4.271-2.28
			c-1.389-0.804-2.715-1.636-4.24-2.189c-1.499-0.549-3.02-0.934-4.627-1.215C986.261,820.359,984.701,819.947,983.061,819.947z"/>
	</g>
</g>
<circle fill="#F7EC35" cx="983.062" cy="847.657" r="13.565"/>
<circle fill="#F05A2A" cx="885.74" cy="942.515" r="3.593"/>
<path fill="#F05A2A" d="M974.525,947.316c0,1.981-1.606,3.592-3.593,3.592s-3.592-1.607-3.592-3.592
	c0-1.988,1.605-3.597,3.592-3.597C972.916,943.721,974.525,945.328,974.525,947.316z"/>
<path fill="#F05A2A" d="M953.405,959.797c0,1.982-1.607,3.592-3.593,3.592s-3.592-1.608-3.592-3.592
	c0-1.988,1.606-3.596,3.592-3.596C951.795,956.201,953.405,957.809,953.405,959.797z"/>
<path fill="#231F20" d="M974.656,975.488c8.19,3.92,11.371,2.883,16.929,1.188c10.312-3.145,5.66-10.186,7.213-17.01
	c1.594-7.008,1.201-9.426,5.471-15.945c5.749-8.78,4.765-17.004,6.564-26.397c-11.807-3.754-18.632-3.754-21.972,0.393
	c-3.342,4.148,0.812,10.717-1.062,25.289c-1.16,9.012-0.977,12.656-7.603,21.799C975.472,971.326,976.023,967.646,974.656,975.488z"
	/>
<g>
	<path fill="#231F20" d="M861.748,902.971c-12.971,2.611-11.394,25.355-9.089,32.57c2.745,8.594-8.657,28.207,15.03,11.463
		c4.296-8.09-3.213-17.664-3.213-27.043c15.018-5.883,29.636,2.59,44.35,0.984c-2.445-9.377,3.553-22.73-3.794-29.765
		L861.748,902.971z"/>
</g>
<path fill="#FBB315" d="M921.188,807.309c-10.237-2.396-20.331,0.978-27.074-0.436c-8.22-1.721-8.812-3.184-14.333-3.922
	c-2.977-0.396-3.642-8.494-10.237-11.762c-0.522,8.254,0.944,15.289-2.195,22.432c-1.63,3.709-9.409,15.689-13.731,34.861
	c-2.877,12.758-10.467,20.694-0.227,26.358c17.18,9.504,17.409-0.795,25.024-13.071c4.55-7.322,13.651-9.587,20.802-25.209
	c2.348-5.13,7.413-11.824,5.595-18.796L921.188,807.309z"/>
<path fill="#9A847A" d="M919.823,807.309c-10.029-2.396-19.919,0.978-26.522-0.436c-8.058-1.721-8.634-3.184-14.044-3.922
	c-2.916-0.396,2.006-3.051-4.457-6.316c-0.516,8.256,0.926,15.289-2.152,22.435c-1.597,3.707-9.219,15.688-13.453,34.862
	c-2.816,12.759-10.254,20.693-0.223,26.355c16.832,9.506,11.482-6.24,18.947-18.518c4.451-7.322,13.375-9.587,20.379-25.209
	c2.297-5.13,7.262-11.824,5.479-18.796L919.823,807.309z"/>
<g>
	<path fill="#FBB315" d="M877.732,861.117c0,0,12.172,25.309,19.795,40.52c-0.496,1.732-0.897,3.445-1.219,5.146
		c-2.152,11.475,2.393,22.207,4.217,32.199c1.985,10.87,1.284,20.864-0.951,29.971c-1.342,5.479-10.92,8.496-8.188,13.729
		c3.241,6.211,17.786,4.629,24.569-3.271c1.625-1.892-0.685-6.652-0.658-14.756c0.035-12.211-1.388-29.031,6.806-49.945
		c12.284,8.822,30.487,14.213,47.096,14.213c15.018,0,35.796-10.022,40.915-6.102c7.606,5.959,8.229,27.834,4.816,48.094
		c-1.399,8.309-10.436,16.867-4.098,17.646c26.621,3.269,20.729-7.897,19.754-16.729c-4.055-36.861,14.375-38.17,8.19-74.5
		c-8.577-50.395-85.618-8.109-114.629-43.4c0,0-19.339-18.084-22.752-23.312"/>
	<g>
		<path fill="#F79420" d="M876.764,861.379c2.429,5.049,4.871,10.092,7.318,15.131c2.199,4.531,4.409,9.06,6.631,13.582
			c2.304,4.693,6.219,9.754,4.963,15.062c-3.049,12.885,2.684,25.285,4.472,37.889c0.994,7.004,0.621,14.127-0.521,21.082
			c-0.562,3.412-1.246,6.309-3.662,8.861c-1.478,1.563-3.17,2.869-4.584,4.496c-4.454,5.12,2.07,9.067,6.673,9.641
			c6.459,0.803,15.551-2.426,19.134-8.096c1.416-2.24-0.365-7.254-0.646-9.552c-0.673-5.504-0.362-11.313-0.332-16.854
			c0.076-13.002,2.184-25.629,6.814-37.807c-0.557,0.147-1.113,0.299-1.671,0.446c10.25,7.16,22.187,11.273,34.458,13.312
			c11.912,1.979,22.801,0.369,34.354-2.636c4.961-1.291,9.952-2.842,15.077-3.291c5.862-0.516,7.854,5.525,9.095,10.222
			c1.631,6.168,1.686,12.752,1.541,19.084c-0.168,7.373-0.474,15.801-3.02,22.774c-1.453,3.982-4.656,7.562-5.236,11.822
			c-0.481,3.535,6.139,3.051,7.875,3.178c5.357,0.392,13.447,0.589,16.481-4.891c2.315-4.182-0.159-10.637-0.604-15.021
			c-1.146-11.255,0.395-21.935,4.062-32.568c5.683-16.479,9.266-36.094,0.119-52.188c-7.212-12.688-23.259-14.926-36.448-15.571
			c-17.297-0.849-34.973,1.198-51.973-2.931c-15-3.643-24.873-15.387-35.369-25.899c-3.283-3.289-6.842-6.613-9.482-10.463
			c-0.49-0.718-2.338,0.022-1.771,0.848c4.436,6.465,10.849,11.896,16.451,17.314c4.133,3.991,8.101,8.562,12.646,12.053
			c12.572,9.649,30.155,10.082,45.284,10.233c15.927,0.158,34.636-2.047,49.187,5.853c16.838,9.141,17.225,34.326,12.842,50.488
			c-2.141,7.899-5.514,15.312-6.977,23.411c-1.589,8.802-1.029,17.88,0.469,26.644c0.428,2.514,0.786,5.186-0.278,7.588
			c-1.872,4.213-8.778,3.873-12.481,3.783c-2.141-0.053-8.402,0.438-7.97-2.738c0.319-2.354,2.209-4.893,3.285-6.957
			c3.014-5.789,3.671-11.926,4.323-18.35c1.093-10.722,1.666-23.361-2.9-33.424c-3.191-7.029-9.037-6.031-15.542-4.604
			c-12.088,2.654-23.231,6.51-35.808,5.623c-14.153-1-28.537-5.664-40.192-13.809c-0.467-0.326-1.456-0.117-1.671,0.448
			c-6.736,17.703-8.693,38.029-6.394,56.855c0.255,2.088,0.741,4.145,0.765,6.254c0.026,2.604-4.036,4.652-5.981,5.711
			c-4.356,2.373-10.53,3.443-15.089,1.092c-5.628-2.903-0.43-7.666,2.309-10.194c2.825-2.611,3.711-5,4.49-8.691
			c2.348-11.121,1.463-22.357-1.21-33.312c-1.493-6.118-3.06-12.133-3.336-18.459c-0.132-2.987,0.31-5.938,0.904-8.854
			c0.438-2.145,1.183-2.98,0.237-4.865c-6.52-13.028-12.857-26.147-19.175-39.276C878.297,860.021,876.385,860.59,876.764,861.379
			L876.764,861.379z"/>
	</g>
</g>
<g>
	<path fill="#9A847A" d="M886.607,856.543c0,0,11.488,24.68,19.111,39.891c-2.048-5.883-11.82,10.255-12.144,11.953
		c-2.149,11.474,2.395,22.207,4.219,32.201c1.985,10.869,1.285,20.861-0.95,29.971c-1.343,5.479-10.92,8.496-8.189,13.726
		c3.244,6.213,17.786,4.633,24.572-3.269c1.624-1.893-0.685-6.653-0.661-14.758c0.034-12.211-1.386-29.029,6.805-49.945
		c12.284,8.824,30.489,14.214,47.099,14.214c15.017,0,35.797-10.021,40.915-6.103c7.606,5.959,8.229,27.836,4.814,48.094
		c-1.396,8.312-10.434,16.869-4.095,17.648c26.62,3.268,20.724-7.902,19.754-16.73c-4.056-36.862,14.373-31.25,8.19-67.579
		c-7.195-42.273-62.568-19.332-97.354-31.675c-6.681-2.371-12.603-12.963-17.276-18.647c0,0-19.34-18.084-22.752-23.312"/>
</g>
<path fill="#231F20" d="M1025.655,880.453c6.364-19.396,34.042-3.979,37.818,10.76c2.473,9.652-10.591,56.545,2.824,55.9
	c-15.24,2.047-19.217-26.062-17.702-38.232c2.456-19.754-1.856-27.022-18.97-26.414L1025.655,880.453z"/>
<path fill="#231F20" d="M867.193,830.785c0,1.266-1.069,2.289-2.389,2.289c-1.321,0-2.393-1.023-2.393-2.289
	c0-1.262,1.069-2.287,2.393-2.287C866.121,828.5,867.193,829.523,867.193,830.785z"/>
<g>
	<g>
		<path fill="#231F20" d="M874.989,861.854c2.43,5.05,4.871,10.093,7.319,15.134c2.2,4.53,4.41,9.059,6.63,13.58
			c1.082,2.207,2.169,4.409,3.259,6.612c1.529,3.092,2.515,4.599,1.683,8.113c-3.073,12.998,2.69,25.518,4.494,38.225
			c0.979,6.892,0.579,13.906-0.543,20.748c-0.521,3.188-1.096,5.828-3.347,8.209c-1.476,1.562-3.171,2.869-4.586,4.496
			c-5.188,5.967,1.998,10.742,7.538,11.43c7.369,0.916,17.38-2.741,21.447-9.176c1.562-2.477-0.252-7.658-0.565-10.223
			c-0.659-5.391-0.342-11.094-0.31-16.521c0.074-12.877,2.123-25.407,6.712-37.471c-1.578,0.424-3.158,0.846-4.736,1.271
			c10.472,7.313,22.679,11.489,35.21,13.571c12.206,2.025,23.454,0.367,35.296-2.711c4.8-1.248,9.634-2.772,14.595-3.207
			c4.882-0.43,6.481,5.644,7.479,9.412c1.604,6.062,1.66,12.521,1.52,18.746c-0.164,7.232-0.418,15.598-2.916,22.441
			c-1.498,4.104-4.739,7.76-5.341,12.155c-0.602,4.412,6.573,4.134,9.058,4.314c6.315,0.461,15.271,0.391,18.796-5.973
			c2.46-4.439-0.052-11.023-0.526-15.691c-1.119-10.99,0.399-21.514,3.98-31.896c5.81-16.851,9.394-36.722,0.051-53.162
			c-7.391-13.002-23.936-15.408-37.458-16.07c-17.13-0.842-34.728,1.25-51.562-2.838c-14.756-3.584-24.443-15.148-34.771-25.492
			c-3.284-3.291-6.841-6.615-9.483-10.465c-1.392-2.027-6.627,0.07-5.023,2.401c4.435,6.466,10.849,11.896,16.452,17.314
			c4.216,4.074,8.263,8.729,12.9,12.293c12.913,9.91,30.957,10.346,46.493,10.5c15.451,0.154,33.856-2.08,47.979,5.586
			c16.521,8.969,16.699,33.795,12.416,49.607c-2.144,7.899-5.517,15.312-6.979,23.414c-1.606,8.903-1.024,18.11,0.49,26.979
			c0.387,2.264,0.764,4.748-0.2,6.916c-1.438,3.236-7.416,2.771-10.167,2.703c-1.553-0.037-7.069,0.443-6.79-1.602
			c0.303-2.22,2.168-4.675,3.184-6.623c3.065-5.89,3.763-12.148,4.429-18.685c1.102-10.812,1.683-23.613-2.925-33.76
			c-3.564-7.854-10.354-6.928-17.641-5.328c-11.763,2.582-22.636,6.41-34.867,5.545c-13.902-0.981-27.988-5.547-39.439-13.545
			c-1.323-0.926-4.127-0.334-4.736,1.271c-6.826,17.938-8.804,38.45-6.472,57.526c0.241,1.971,0.721,3.926,0.741,5.918
			c0.021,2.015-3.455,3.717-4.969,4.539c-3.669,1.998-9.054,3.111-12.937,1.107c-4.892-2.525,0.138-6.558,2.422-8.666
			c2.976-2.752,3.983-5.455,4.805-9.349c2.366-11.213,1.464-22.6-1.23-33.646c-1.464-6-3.041-11.922-3.313-18.123
			c-0.132-2.988,0.312-5.938,0.904-8.854c0.498-2.438,1.156-3.329,0.066-5.506c-6.47-12.928-12.76-25.946-19.024-38.975
			C879.334,858.01,873.916,859.621,874.989,861.854L874.989,861.854z"/>
	</g>
</g>
<path fill="none" stroke="#231F20" stroke-width="5.6798" stroke-miterlimit="10" d="M919.14,807.963
	c-10.237-2.396-20.33,0.978-27.074-0.438c-8.221-1.72-8.811-3.183-14.334-3.922c-2.976-0.396-3.639-8.494-10.235-11.763
	c-0.524,8.256,0.942,15.289-2.194,22.435c-1.631,3.707-9.409,15.688-13.732,34.86c-2.879,12.761-10.466,20.693-0.228,26.359
	c17.18,9.502,17.406-0.797,25.024-13.072c4.548-7.324,13.652-9.586,20.802-25.209c2.347-5.131,7.412-11.826,5.593-18.797
	L919.14,807.963z"/>
<path fill="#231F20" d="M904.73,835.688c-5.115,8.037-3.498,22.533-2.894,32.271c5.474-3.666,7.89-11.355,10.26-17.486
	c5.109,5.188,5.572,18.562,7.992,26.088c1.39-4.795,2.961-9.711,5.348-14.063c6.245,7.557,6.896,18.17,16.967,23.086
	c0.305-3.484,0.139-7.137,0.362-10.633c5.116,4.186,11.296,7.524,16.841,11.373c-3.818-8.511-2.406-15.017-9.831-21.468
	c-5.828-5.063-15.522-9.26-22.521-12.502L904.73,835.688z"/>
<ellipse fill="#231F20" cx="883.771" cy="837.597" rx="3.883" ry="3.718"/>
<ellipse fill="#231F20" cx="866.836" cy="829.916" rx="3.883" ry="3.717"/>
<path fill="#231F20" d="M897.754,804.912c-1.387-5.078-14.021-7.062-18.201-4.357c-6.271,4.06-3.467,13.549-8.189,18.302
	l8.646-5.229c-0.455,6.535-5.46,7.842-3.187,15.686c2.563-3.643,4.306-8.547,7.736-11.766c0.117,4.281,2.274,11.791,2.274,10.896
	c0-1.744,0.549-6.627,5.461-11.328C899.117,810.576,898.021,805.889,897.754,804.912z"/>
<path fill="none" stroke="#231F20" stroke-width="2.8399" stroke-linecap="round" stroke-linejoin="round" stroke-miterlimit="10" d="
	M852.478,863.078c1.365,1.309,1.365,4.193,1.365,6.154"/>
<line fill="none" x1="1018.373" y1="872.938" x2="1027.443" y2="878.109"/>
<path fill="none" stroke="#231F20" stroke-width="2.8399" stroke-linecap="round" stroke-linejoin="round" stroke-miterlimit="10" d="
	M866.129,869.396c0,0-3.867-1.091-7.28,2.396"/>
<g>
	<path fill="#9A847A" d="M939.847,896.301c6.823,7.951,8.803,17.803,13.795,25.642c-0.203-4.691,2.894-18.49,4.635-22.916
		c6.144,8.821,7.166,16.012,8.81,24.237c1.826-11.242,5.057-19.106,6.059-27.805c4.236,7.316,7.889,26.529,7.889,26.529
		s0.221-0.586,0.165-1.252c0,0,10.866-16.484,12.23-26.289"/>
	<g>
		<path fill="#231F20" d="M938.476,896.668c6.262,7.684,8.708,17.277,13.795,25.641c0.308,0.509,2.749-0.139,2.742-0.733
			c-0.082-7.482,2.015-15.822,4.61-22.81c-0.905,0.209-1.812,0.418-2.72,0.627c5.04,7.525,7.078,15.476,8.81,24.238
			c0.104,0.521,2.645-0.158,2.742-0.734c1.607-9.356,4.838-18.383,6.06-27.805c-0.915,0.244-1.829,0.488-2.744,0.732
			c4.361,7.971,6.19,17.678,7.889,26.531c0.097,0.495,2.591-0.148,2.722-0.625c0.936-3.431,3.439-6.521,5.192-9.671
			c3.119-5.596,6.16-11.606,7.227-17.979c0.032-0.197-2.611-0.051-2.742,0.734c-1.056,6.312-4.144,12.202-7.179,17.764
			c-1.738,3.188-4.254,6.221-5.194,9.67c0.907-0.209,1.812-0.418,2.721-0.627c-1.698-8.855-3.526-18.562-7.889-26.529
			c-0.298-0.545-2.668,0.15-2.744,0.732c-1.22,9.418-4.449,18.449-6.057,27.807c0.913-0.244,1.827-0.488,2.741-0.734
			c-1.729-8.764-3.769-16.715-8.81-24.237c-0.336-0.502-2.526,0.108-2.719,0.625c-2.597,6.981-4.741,15.545-4.658,23.024
			c0.914-0.243,1.828-0.487,2.742-0.733c-5.086-8.361-7.532-17.957-13.795-25.642C940.719,895.316,938.346,896.51,938.476,896.668
			L938.476,896.668z"/>
	</g>
</g>
<g>
	<g>
		<path fill="#231F20" d="M1001.063,899.271c-1.354,6.202-2.35,12.479-5.004,18.299c-0.184,0.401,2.39,0.192,2.703-0.494
			c2.652-5.816,3.647-12.099,5.004-18.299C1003.892,898.199,1001.205,898.613,1001.063,899.271L1001.063,899.271z"/>
	</g>
</g>
<g>
	<g>
		<path fill="#231F20" stroke="#FFFFFF" stroke-width="1.7451" stroke-miterlimit="10" d="M1052.748,1037.674H847.811
			c-5.951,0-10.794-4.963-10.794-11.063v-38.74c0-6.103,4.843-11.066,10.794-11.066h204.938c5.952,0,10.795,4.966,10.795,11.066
			v38.738C1063.543,1032.711,1058.699,1037.674,1052.748,1037.674z"/>
	</g>
</g>
<g>
	<path fill="#FBC316" d="M847.481,1029.453c-1.671,0-3.03-1.396-3.03-3.105V987.61c0-1.716,1.359-3.107,3.03-3.107h204.936
		c1.672,0,3.029,1.396,3.029,3.107v38.737c0,1.711-1.357,3.104-3.029,3.104L847.481,1029.453L847.481,1029.453z"/>
</g>
<g>
	<path fill="#231F20" d="M862.839,1024.602l-7.95-37.225h7.347l4.917,24.975l4.613-24.975h7.676l-8,37.225H862.839z"/>
	<path fill="#231F20" d="M888.795,1025.068c-1.34-0.017-2.525-0.355-3.571-1.025c-1.048-0.674-1.824-1.506-2.333-2.504
		c-0.51-0.996-0.77-2.047-0.77-3.154c0-0.717,0.077-1.399,0.229-2.059c0.15-0.652,0.336-1.238,0.552-1.754
		c0.218-0.515,0.528-1.009,0.927-1.482c0.402-0.477,0.779-0.891,1.135-1.238c0.35-0.354,0.812-0.703,1.391-1.065
		c0.576-0.355,1.072-0.646,1.492-0.875c0.418-0.226,0.961-0.479,1.629-0.76c0.67-0.281,1.201-0.494,1.594-0.644
		c0.395-0.146,0.936-0.35,1.63-0.598s1.2-0.428,1.521-0.537v-2.547c0-0.998-0.143-1.742-0.416-2.232
		c-0.274-0.49-0.809-0.736-1.592-0.736c-1.322,0-2.017,0.865-2.081,2.597l-0.151,1.895l-7.349-0.28c0-0.312,0.024-0.632,0.075-0.959
		c0.219-2.961,1.18-5.14,2.885-6.533s4.139-2.094,7.298-2.094c2.927,0,5.128,0.75,6.608,2.245c1.479,1.496,2.221,3.545,2.221,6.146
		v12.787c0,2.119,0.182,4.436,0.554,6.94h-6.95c-0.418-2.039-0.66-3.362-0.727-3.973c-0.402,1.262-1.092,2.318-2.07,3.168
		S890.301,1025.068,888.795,1025.068z M891.681,1019.834c0.448,0,0.914-0.154,1.391-0.469c0.478-0.312,0.857-0.65,1.145-1.027
		v-7.574c-1.393,0.672-2.546,1.547-3.479,2.629c-0.926,1.082-1.391,2.212-1.391,3.382c0,0.936,0.208,1.676,0.627,2.229
		C890.394,1019.557,890.961,1019.834,891.681,1019.834z"/>
	<path fill="#231F20" d="M907.18,1024.602v-9.711v-3.59v-7.182v-2.693v-11.908h7.773v11.312v2.99v7.778v13.004H907.18
		L907.18,1024.602z"/>
	<path fill="#231F20" d="M929.777,1025.068c-3.328,0-5.817-0.843-7.474-2.535c-1.657-1.689-2.483-4.117-2.483-7.279v-8.953
		c0-3.164,0.836-5.592,2.509-7.285c1.674-1.688,4.146-2.534,7.422-2.534c3.363,0,5.805,0.848,7.316,2.534
		c1.514,1.693,2.271,4.205,2.271,7.541v4.627H927.52v4.537c0,1.371,0.15,2.402,0.451,3.097c0.303,0.692,0.895,1.041,1.779,1.041
		c1.537,0,2.312-1.037,2.312-3.107v-2.574h7.249v2.246c0,2.806-0.818,4.949-2.458,6.427
		C935.213,1024.332,932.854,1025.068,929.777,1025.068z M927.519,1007.701h4.542v-2.711c0-1.185-0.188-2.035-0.564-2.549
		c-0.378-0.517-0.968-0.771-1.77-0.771c-0.805,0-1.372,0.293-1.706,0.877s-0.502,1.609-0.502,3.072V1007.701z"/>
	<path fill="#231F20" d="M943.976,1024.602v-27.676h7.751v2.734c2.391-2.119,4.798-3.182,7.222-3.182c1.724,0,3.021,0.59,3.89,1.766
		c0.869,1.18,1.304,2.662,1.304,4.455v21.899h-7.774v-20.614c0-0.765-0.126-1.334-0.376-1.705c-0.251-0.377-0.718-0.556-1.401-0.539
		c-0.803,0-1.76,0.367-2.859,1.096v21.766H943.976L943.976,1024.602z"/>
	<path fill="#231F20" d="M977.609,1024.953c-1.204-0.029-2.248-0.215-3.136-0.551c-0.887-0.332-1.594-0.767-2.121-1.297
		c-0.523-0.529-0.947-1.199-1.266-2.011c-0.317-0.811-0.533-1.631-0.65-2.467c-0.117-0.834-0.176-1.789-0.176-2.863v-14.096h-2.859
		v-4.746h2.859v-6.938h7.824v6.938h4.391v4.746h-4.391v15.055c0,1.558,0.895,2.359,2.684,2.408c0.051,0,0.109,0,0.177,0
		c0.534,0,1.203-0.063,2.004-0.188v5.653c-2.038,0.234-3.677,0.354-4.913,0.354C977.885,1024.953,977.741,1024.953,977.609,1024.953
		z"/>
	<path fill="#231F20" d="M987.013,995.334v-5.494h7.8v5.494H987.013z M987.037,1025.137v-25.27h7.75v25.27H987.037z"/>
	<path fill="#231F20" d="M1000.18,1024.602v-27.676h7.75v2.734c2.391-2.119,4.799-3.182,7.225-3.182c1.721,0,3.018,0.59,3.885,1.766
		c0.87,1.18,1.307,2.662,1.307,4.455v21.899h-7.772v-20.614c0-0.765-0.127-1.334-0.376-1.705c-0.251-0.377-0.72-0.556-1.406-0.539
		c-0.801,0-1.754,0.367-2.857,1.096v21.766H1000.18L1000.18,1024.602z"/>
	<path fill="#231F20" d="M1034.815,1025.068c-3.209,0-5.666-0.806-7.373-2.418c-1.705-1.613-2.557-3.933-2.557-6.955v-9.865
		c0-3.006,0.852-5.318,2.557-6.928c1.707-1.615,4.164-2.425,7.373-2.425c3.229,0,5.708,0.81,7.438,2.425
		c1.731,1.608,2.598,3.922,2.598,6.928v9.865c0,3.008-0.864,5.321-2.598,6.942
		C1040.523,1024.26,1038.043,1025.068,1034.815,1025.068z M1034.842,1020.113c0.921,0,1.539-0.332,1.854-0.994
		c0.317-0.662,0.479-1.633,0.479-2.908v-10.871c0-1.293-0.159-2.271-0.479-2.934c-0.315-0.662-0.936-0.994-1.854-0.994
		c-0.903,0-1.508,0.342-1.817,1.02c-0.309,0.677-0.464,1.646-0.464,2.908v10.871c0,1.264,0.155,2.229,0.464,2.898
		C1033.334,1019.777,1033.938,1020.113,1034.842,1020.113z"/>
</g>
<g>
	<path fill="#9A847A" d="M895.822,908.494c-2.224,12.361,2.468,23.928,4.352,34.693c2.049,11.715,1.323,13.493-0.98,23.307v-1.051
		c-1.385,5.901-11.268,9.153-8.45,14.789c3.351,6.694,18.353,4.989,25.351-3.521c1.678-2.039-0.703-7.17-0.681-15.902
		c0.034-13.153-1.434-22.731,7.02-45.264"/>
	<g>
		<path fill="#231F20" d="M892.894,908.723c-1.683,10.982,1.39,21.354,3.746,31.986c2.062,9.312,1.784,16.855-0.377,26.014
			c1.95-0.151,3.903-0.305,5.854-0.455c0-0.35,0-0.698,0-1.051c0-2.779-5.006-2.238-5.688-0.09
			c-2.058,6.457-15.164,12.311-5.62,19.264c7.333,5.34,20.24,0.611,25.947-5c3.259-3.201,2.972-5.744,2.33-10.071
			c-0.879-5.941-0.802-11.939-0.825-17.937c-0.054-12.361,2.659-23.947,6.929-35.518c1.15-3.121-4.646-3.017-5.523-0.638
			c-5.968,16.175-8.476,32.66-7.028,49.882c0.262,3.116,2.44,9.18,0.194,11.719c-3.402,3.848-9.224,5.74-14.231,5.322
			c-4.632-0.386-6.735-4.076-3.534-7.625c2.555-2.832,5.682-4.976,6.888-8.765c-1.896-0.028-3.793-0.061-5.688-0.09
			c0,0.35,0,0.697,0,1.049c0,3.133,5.29,1.943,5.854-0.455c1.989-8.422,2.398-15.278,0.945-23.854
			c-1.954-11.521-6.132-22.271-4.313-34.146C899.195,905.363,893.287,906.148,892.894,908.723L892.894,908.723z"/>
	</g>
</g>
<g>
	<path fill="#AFD137" stroke="#009348" stroke-width="9.406" d="M209.853,1019.803c-54.883,0-99.533-44.651-99.533-99.539
		c0-54.883,44.65-99.535,99.533-99.535c54.894,0,99.546,44.652,99.546,99.535C309.399,975.148,264.745,1019.803,209.853,1019.803z"
		/>
</g>
<line fill="none" stroke="#231F20" stroke-width="8.0715" x1="277.591" y1="897.836" x2="277.591" y2="911.646"/>
<line fill="none" stroke="#231F20" stroke-width="8.0715" x1="309.481" y1="897.836" x2="309.481" y2="911.646"/>
<polygon fill="#FAB677" stroke="#8A5F3D" stroke-width="3.2286" points="312.947,874.352 293.148,854.557 274.361,873.344 
	274.361,897.836 312.06,897.836 "/>
<line fill="none" stroke="#8A5F3D" stroke-width="3.2286" x1="273.408" y1="892.283" x2="254.615" y2="911.076"/>
<path fill="#231F20" d="M300.744,879.365c0-3.494-3.312-6.324-7.396-6.324c-4.086,0-7.397,2.83-7.397,6.324
	c0,0.09,0.013,0.182,0.017,0.272h-0.017v12.646h14.796v-12.646h-0.019C300.732,879.547,300.744,879.455,300.744,879.365z"/>
<g>
	<path fill="#8A5F3D" d="M272.101,893.293h-3.271c-0.262,0-0.473,0.213-0.473,0.471v3.547"/>
</g>
<g>
	<path fill="#8A5F3D" d="M268.573,896.818h-3.271c-0.258,0-0.47,0.211-0.47,0.471v3.549"/>
</g>
<g>
	<path fill="#8A5F3D" d="M265.049,900.344h-3.271c-0.259,0-0.471,0.213-0.471,0.472v3.549"/>
</g>
<g>
	<path fill="#8A5F3D" d="M261.524,903.869h-3.271c-0.259,0-0.473,0.211-0.473,0.471v3.549"/>
</g>
<g>
	<path fill="#231F20" d="M392.68,902.5"/>
</g>
<path fill="#FFFFFF" stroke="#764D2A" stroke-width="1.7636" d="M147.993,953.816c0.734,2.403,1.839,5.657,2.522,8.129"/>
<line fill="none" stroke="#764D2A" stroke-width="1.7636" x1="141.756" y1="954.066" x2="140.244" y2="962.322"/>
<path fill="#FFFFFF" stroke="#764D2A" stroke-width="2.3515" d="M277.802,951.025c0.229,2.485,1.105,9.262,1.105,9.262"/>
<path fill="#FFFFFF" stroke="#764D2A" stroke-width="2.3515" d="M270.89,949.779c-0.852,2.783-3.271,9.66-3.271,9.66"/>
<path fill="#FFFFFF" stroke="#764D2A" stroke-width="1.7636" d="M130.834,899.869c-0.196,2.147-1.224,8.215-1.224,8.215"/>
<path fill="#FFFFFF" stroke="#764D2A" stroke-width="1.7636" d="M136.185,899.578c0.736,2.402,2.994,7.895,2.994,7.895"/>
<g>
	<path fill="#009348" d="M308.891,1029.729h-190.86c-5.729,0-10.39-5.034-10.39-11.221V979.23c0-6.188,4.66-11.224,10.39-11.224
		h190.86c5.729,0,10.39,5.033,10.39,11.224v39.276C319.281,1024.693,314.619,1029.729,308.891,1029.729z"/>
</g>
<g>
	<g>
		<path fill="#FFFFFF" d="M277.392,952.525"/>
		<path fill="#FFFFFF" d="M255.653,923.562c1.657,0.557,3.665,2.19,2.866,4.125"/>
		<path fill="#FFFFFF" d="M255.233,923.982c-0.466,0.021-2.274,0.479-2.596,0.375c-0.085-0.234,1.132-2.654,2.106-3.24v-0.279
			c1.064-3.412,6.408-4.699,8.221-1.789c1.812,2.908,5.479,17.271,18.521,13.188c3.77-1.181,6.615-4.795,11.229-4.822
			c0.093,0.057,0.166,0.125,0.234,0.197c0.119,0.039,0.303,0.186,0.451,0.338c0.062,0.27,0.064,0.651,0.057,0.94
			c-0.475,1.254-1.633,2.152-1.873,3.506c0.421,0.343,1.04,0.021,1.472,0.359c0.097,0.168,0.104,0.416,0.118,0.611
			c-0.047,0.086-0.117,0.16-0.188,0.233c-0.035,0.099-0.057,0.218-0.08,0.339c-2.055,1.891-0.549,5.692-4.131,6.645
			c-0.4,6.303-8.328,10.908-12.853,10.502c-12.232-0.361-15.832-6.945-17.669-12.404c-1.223-3.629-0.33-7.106,0.268-10.993"/>
		<path fill="#FFFFFF" d="M255.653,923.562c-0.141,0.141-0.278,0.28-0.42,0.42"/>
		<path fill="#FFFFFF" d="M255.233,923.982c-0.247,1.256,0.183,2.35,0.833,3.352c0.742,0.385,1.593,0.719,2.453,0.354"/>
		<path fill="#FFFFFF" d="M268.539,941.436c4.6,4.318,10.438,3.47,15.507,1.63c0.243-0.218,0.397-0.623,0.478-0.978"/>
	</g>
</g>
<circle fill="#FFFFFF" cx="258.859" cy="920.805" r="1.076"/>
<g>
	<g>
		<g>
			<path fill="#FFFFFF" d="M142.072,955.973"/>
			<path fill="#FFFFFF" d="M160.855,930.943c-1.43,0.481-3.165,1.895-2.475,3.563"/>
			<path fill="#FFFFFF" d="M161.22,931.309c0.401,0.017,1.965,0.412,2.242,0.322c0.074-0.201-0.979-2.293-1.82-2.799v-0.242
				c-0.922-2.949-5.538-4.062-7.104-1.547c-1.564,2.516-4.734,14.924-16.005,11.396c-3.257-1.021-5.719-4.146-9.701-4.168
				c-0.078,0.047-0.143,0.108-0.204,0.17c-0.104,0.034-0.259,0.159-0.392,0.293c-0.053,0.231-0.056,0.563-0.045,0.813
				c0.407,1.084,1.408,1.859,1.617,3.027c-0.364,0.295-0.897,0.018-1.271,0.312c-0.083,0.146-0.09,0.357-0.103,0.527
				c0.04,0.074,0.103,0.139,0.163,0.203c0.028,0.084,0.047,0.188,0.068,0.291c1.774,1.635,0.474,4.92,3.567,5.742
				c0.35,5.444,7.197,9.428,11.105,9.075c10.567-0.313,13.682-6.004,15.268-10.721c1.057-3.135,0.286-6.141-0.229-9.5"/>
			<path fill="#FFFFFF" d="M160.855,930.943c0.123,0.121,0.242,0.241,0.365,0.362"/>
			<path fill="#FFFFFF" d="M161.22,931.309c0.212,1.084-0.158,2.029-0.721,2.896c-0.645,0.332-1.375,0.621-2.119,0.307"/>
			<path fill="#FFFFFF" d="M149.722,946.387c-3.974,3.732-9.02,2.998-13.4,1.408c-0.211-0.188-0.344-0.539-0.408-0.844"/>
		</g>
	</g>
	<circle fill="#FFFFFF" cx="158.088" cy="928.562" r="0.93"/>
</g>
<path fill="#FDF498" d="M120.733,977.605c-1.093,0-2.019,1-2.019,2.18v38.166c0,1.182,0.926,2.182,2.019,2.182h185.456
	c1.095,0,2.02-1,2.02-2.182v-38.166c0-1.18-0.925-2.18-2.02-2.18H120.733z"/>
<polyline fill="none" stroke="#231F20" stroke-width="6.4572" points="319.636,878.854 292.391,852.42 267.092,877.715 "/>
<circle fill="#231F20" cx="258.862" cy="922.405" r="1.192"/>
<circle fill="#231F20" cx="157.656" cy="930.285" r="1.191"/>
<circle fill="#FBED21" cx="250.565" cy="953.79" r="3.042"/>
<circle fill="#E90D8C" cx="123.366" cy="925.585" r="2.28"/>
<circle fill="#006938" cx="257.203" cy="965.128" r="2.28"/>
<circle fill="#FBED21" cx="169.821" cy="959.873" r="4.184"/>
<g>
	<g>
		<path fill="#FFFFFF" d="M129.6,899.516"/>
		<path fill="#FFFFFF" d="M148.385,874.488c-1.432,0.479-3.167,1.893-2.478,3.562"/>
		<path fill="#FFFFFF" d="M148.748,874.852c0.4,0.017,1.965,0.412,2.241,0.322c0.073-0.203-0.979-2.291-1.819-2.799v-0.24
			c-0.921-2.951-5.537-4.062-7.104-1.547c-1.564,2.514-4.734,14.922-16.006,11.396c-3.255-1.021-5.716-4.146-9.701-4.168
			c-0.077,0.049-0.141,0.108-0.203,0.17c-0.104,0.034-0.259,0.159-0.39,0.295c-0.053,0.231-0.057,0.562-0.046,0.812
			c0.407,1.084,1.408,1.859,1.618,3.029c-0.364,0.293-0.899,0.016-1.272,0.311c-0.084,0.146-0.089,0.357-0.102,0.529
			c0.041,0.072,0.101,0.137,0.163,0.201c0.027,0.084,0.048,0.188,0.066,0.291c1.776,1.637,0.476,4.92,3.569,5.742
			c0.347,5.444,7.196,9.428,11.105,9.075c10.568-0.312,13.682-6.002,15.268-10.721c1.055-3.135,0.286-6.141-0.229-9.5"/>
		<path fill="#FFFFFF" d="M148.385,874.488c0.121,0.119,0.242,0.242,0.363,0.36"/>
		<path fill="#FFFFFF" d="M148.748,874.852c0.213,1.086-0.158,2.029-0.722,2.896c-0.642,0.332-1.375,0.621-2.119,0.307"/>
		<path fill="#FFFFFF" d="M137.252,889.93c-3.978,3.732-9.021,3-13.402,1.408c-0.21-0.188-0.345-0.539-0.411-0.844"/>
	</g>
</g>
<circle fill="#FFFFFF" cx="145.615" cy="872.105" r="0.93"/>
<circle fill="#231F20" cx="145.46" cy="873.328" r="1.191"/>
<g>
	<g>
		<path fill="#AFD137" d="M140.552,885.346c-2.717,5.488-8.204,7.994-13.726,4.66c-0.978-0.59-1.862,0.937-0.892,1.521
			c6.287,3.797,12.973,1.104,16.14-5.293C142.578,885.221,141.056,884.324,140.552,885.346L140.552,885.346z"/>
	</g>
</g>
<g>
	<g>
		<path fill="#AFD137" d="M153.576,941.523c-2.719,5.489-8.203,7.995-13.727,4.661c-0.977-0.59-1.862,0.937-0.891,1.523
			c6.288,3.795,12.973,1.102,16.139-5.295C155.601,941.398,154.081,940.506,153.576,941.523L153.576,941.523z"/>
	</g>
</g>
<g>
	<g>
		<path fill="#AFD137" d="M280.263,942.973c-5.89,3.082-12.516,1.756-15.225-4.715c-0.479-1.147-2.377-0.645-1.891,0.521
			c3.205,7.659,10.943,9.631,18.104,5.887C282.372,944.078,281.382,942.389,280.263,942.973L280.263,942.973z"/>
	</g>
</g>
<rect x="103.573" y="985.035" fill="none" width="219.016" height="45.717"/>
<text transform="matrix(1 0 0 1 138.6965 1014.0449)" font-family="'Rockwell'" font-size="42.7251" letter-spacing="2">TUCCI</text>
<text transform="matrix(1 0 0 1 138.6965 1014.0449)" fill="none" stroke="#231F20" stroke-width="1.4173" stroke-miterlimit="10" font-family="'Rockwell'" font-size="42.7251" letter-spacing="2">TUCCI</text>
<path fill="#231F20" d="M233.976,947.432c0,0,0.552,4.976-0.276,6.082c-0.828,1.105-1.937,0-1.937,0L233.976,947.432z"/>
<g>
	<g>
		<path fill="#FFFFFF" d="M193.603,857.162c-13.782,0-22.738-2.441-27.562,10.387c-3.444,9.162-0.689,21.379-14.472,23.211
			c2.759,6.719,11.025,7.939,17.914,6.719"/>
		<g>
			<path fill="#231F20" d="M193.426,855.812c-9.348-0.054-20.471-2.109-26.701,6.557c-6.584,9.16-1.53,24.715-15.761,27.084
				c-0.761,0.127-1.354,0.9-0.988,1.65c3.73,7.696,12.428,8.856,20.119,7.682c2.229-0.34,0.562-2.885-1.217-2.611
				c-5.991,0.916-12.765,0.32-15.709-5.756c-0.329,0.551-0.658,1.1-0.988,1.648c11.221-1.867,12.384-10.482,14.384-20.08
				c1.202-5.771,4.015-11.353,10.039-13.023c5.389-1.498,11.664-0.479,17.178-0.447
				C196.041,858.527,195.412,855.822,193.426,855.812L193.426,855.812z"/>
		</g>
	</g>
	<g>
		<path fill="#FFFFFF" d="M190.556,847.234c-1.576,0.616-2.351,1.237-3.68,2.188c-1.344,0.959-2.907,1.4-4.01,2.658
			c-1.068,1.221-2.06,2.445-2.909,3.91c-0.812,1.395-2.066,2.61-2.689,4.192c-0.591,1.502-0.773,3.191-1.204,4.836
			c-0.409,1.562-1.715,3.019-1.982,4.689c-0.26,1.602-0.687,3.299-0.82,4.977c-0.131,1.625,0.646,3.367,0.626,5.046
			c-0.021,1.637,1.286,3.247,1.365,4.92c0.077,1.641-0.616,3.317-0.447,4.977c0.168,1.641,0.413,3.27,0.666,4.908
			c0.253,1.637-0.327,3.436,0.006,5.055c0.335,1.627,1.854,2.979,2.267,4.576c0.417,1.613,0.812,3.197,1.304,4.766
			c0.501,1.599,0.859,3.205,1.435,4.734c0.591,1.574,0.268,3.449,0.93,4.936c0.418,1.607,1.823,2.873,2.22,4.431
			c0.41,1.614,0.539,3.27,0.927,4.817c0.406,1.625,0.286,3.34,0.67,4.886c0.406,1.633,1.725,2.989,2.107,4.524
			c0.411,1.646,0.456,3.316,0.846,4.836c0.425,1.658,0.919,3.219,1.322,4.715c0.454,1.683,0.21,3.455,0.643,4.912
			c0.516,1.726,2.177,2.896,2.671,4.269c0.661,1.838,1.077,3.332,1.729,4.463c1.22,2.125,1.587,2.334,2.896,1.522
			c0.858-0.235,1.105-1.146,1.156-3.842c0.027-1.442,0.417-3.145,0.32-5.039c-0.08-1.571-0.127-3.272-0.244-5.049
			c-0.107-1.631,0.339-3.359,0.232-5.08c-0.102-1.67-0.522-3.34-0.592-5.024c-0.067-1.712,0.582-3.402,0.579-5.056
			c-0.003-1.75-1.153-3.465-1.046-5.067c0.122-1.812-0.252-3.66,0.062-5.168c0.396-1.904,1.545-3.515,2.345-4.705
			c1.013-1.507,2.654-2.095,4.512-2.005c1.741-0.27,3.381,0.666,4.867,0.623c1.788-0.053,3.415-1.42,4.862-1.176
			c1.77,0.299,3.19,1.213,4.505,1.896c1.521,0.791,2.096,2.305,3.088,3.52c1.01,1.236,3.283,1.803,3.837,3.375
			c0.519,1.469-0.18,3.371,0.021,5.041c0.188,1.56,0.601,3.16,0.574,4.82c-0.021,1.598-1.11,3.137-1.271,4.762
			c-0.16,1.619-0.584,3.16-0.824,4.746c-0.25,1.646,1.644,3.611,1.369,5.15c-0.302,1.694-1.489,3.146-1.741,4.625
			c-0.314,1.838-1.931,3.358-2.023,4.703c-0.175,2.545,1.366,3.752,2.818,3.59c1.345,0.17,2.857-0.351,4.065-2.355
			c0.722-1.198,0.672-3.08,1.357-4.916c0.535-1.43,0.445-3.182,0.967-4.938c0.449-1.515,1.006-3.066,1.446-4.793
			c0.399-1.56,2.855-2.695,3.252-4.402c0.368-1.588-0.505-3.52-0.138-5.215c0.35-1.604-0.062-3.41,0.287-5.096
			c0.337-1.621,2.061-2.988,2.397-4.666c0.329-1.632-0.101-3.484,0.232-5.158c0.746-1.457,2.729-2.355,3.384-3.795
			c0.678-1.49,0.888-3.191,1.47-4.662c0.604-1.523,1.729-2.873,2.23-4.369c0.522-1.553-0.439-3.557-0.021-5.074
			c0.438-1.582,0.938-3.102,1.271-4.641c0.347-1.607,1.331-3.07,1.568-4.629c0.248-1.627,0.78-3.228,0.918-4.793
			c0.143-1.644-0.306-3.314-0.278-4.884c0.027-1.651-0.88-3.231-0.973-4.793c-0.1-1.653,0.297-3.289,0.073-4.83
			c-0.234-1.647,0.285-3.426-0.079-4.936c-0.394-1.627-1.596-2.998-2.117-4.451c-0.573-1.584-1.033-3.168-1.74-4.524
			c-0.786-1.507-1.194-3.279-2.118-4.48c-1.044-1.359-2.236-2.779-3.414-3.715c-1.361-1.078-3.442-1.064-4.646-1.998
			c-1.393-1.078-1.86-3.158-3.064-4.053c-1.44-1.07-3.613-0.834-4.828-1.658c-1.529-1.035-2.523-2.5-3.774-3.18
			c-1.676-0.908-3.061-2.199-4.421-2.546c-1.702-0.432-3.581,0.117-5.17,0.408c-1.445,0.269-2.865,1.199-4.549,1.929
			c-1.325,0.575-2.447,1.952-4.094,2.739c-1.327,0.638-2.912,1.086-4.539,1.824c-1.367,0.617-3.077,0.742-4.708,1.41
			C192.891,847.131,192.873,847.164,190.556,847.234z"/>
		<g>
			<path fill="#231F20" d="M189.057,846.932c-4.204,1.951-7.983,4.443-10.786,8.142c-1.645,2.17-3.262,4.539-4.062,7.145
				c-0.974,3.15-2.417,6.365-3.006,9.599c-1.083,5.942,1.967,11.146,1.038,16.854c-0.523,3.232,0.769,6.652,0.521,9.957
				c-0.222,2.979,2.415,6.519,3.198,9.437c0.867,3.229,2.091,6.311,2.423,9.653c0.273,2.771,2.394,4.91,2.959,7.642
				c0.63,3.034,0.613,6.37,1.707,9.262c0.438,1.156,1.209,2.176,1.661,3.346c0.756,1.957,0.729,4.412,1.288,6.463
				c0.808,2.974,0.796,6.453,2.087,9.201c0.51,1.086,1.517,1.998,2.104,3.066c0.741,1.344,1.062,3.053,1.729,4.463
				c1.571,3.338,4.768,2.291,7.464,0.893c3.156-1.639,2.209-8.426,2.08-11.27c-0.153-3.396,0.25-6.82-0.12-10.187
				c-0.405-3.688,0.672-7.438-0.395-10.998c-0.943-3.155-0.86-7.077,0.562-10.039c1.546-3.217,4.971-1.584,7.621-2.069
				c0.904-0.166,1.835-0.295,2.704-0.613c1.924-0.707,2.985,0.379,4.688,1.291c2.134,1.143,3.445,3.959,5.626,5.383
				c2.307,1.504,1.062,5.629,1.409,7.949c0.56,3.695-0.725,7.318-1.436,10.949c-0.478,2.432,0.153,3.69,0.982,5.985
				c0.728,2.009-2.402,7.3-3.354,9.025c-2.075,3.771,2.095,5.426,4.975,5.156c4.511-0.422,6.859-3.094,7.72-7.373
				c0.754-3.744,1.776-7.428,2.814-11.104c0.968-3.434,3.692-3.08,3.223-7.196c-0.439-3.865,0.02-7.693,2.107-10.976
				c0.889-1.395,0.638-3.34,0.606-4.875c-0.04-1.992,2.391-3.733,3.479-5.285c0.818-1.164,1.038-3.312,1.47-4.661
				c0.507-1.587,2.056-2.921,2.271-4.599c0.294-2.281-0.276-4.09,0.392-6.412c0.604-2.098,1.122-4.145,1.952-6.17
				c1.223-2.979,1.537-6.688,1.207-9.84c-0.46-4.395-0.917-8.455-1.035-12.898c-0.1-3.752-1.495-5.819-2.702-9.284
				c-1.336-3.834-2.979-7.229-5.693-10.244c-0.726-0.808-1.585-1.479-2.62-1.824c-2.709-0.904-3.824-1.809-5.327-4.268
				c-1.548-2.533-5.599-2.367-7.76-4.418c-11.927-11.312-22.691,4.516-35.127,5.036c-1.334,0.058-5.754,2.17-2.293,2.025
				c5.004-0.211,9.779-2.229,14.42-3.969c1.878-0.703,3.455-1.609,5.045-2.812c4.794-3.621,9.176-2.084,13.009,1.478
				c2.302,2.139,4.11,2.028,6.82,3.383c2.098,1.047,1.837,3.893,4.42,4.717c7.699,2.463,8.771,10.818,12.108,17.15
				c1.257,2.383,0.627,6.678,0.453,9.299c-0.207,3.109,0.884,6.541,1.211,9.674c0.708,6.767-4.235,12.699-3.562,19.549
				c0.157,1.601-1.653,3.976-2.353,5.377c-0.695,1.402-0.938,3.181-1.47,4.662c-1.012,2.826-3.3,2.457-3.558,5.74
				c-0.163,2.072-0.087,3.729-1.26,5.566c-0.48,0.754-1.154,1.598-1.237,2.536c-0.262,2.938,0.888,9.354-1.098,11.67
				c-3.607,4.216-4.265,9.863-5.347,15.246c-0.029,0.146-1.077,3.072-0.467,3.064c-2.016,0.025-1.999-2.85-1.635-4.072
				c0.834-2.795,2.606-5.428,3.453-8.283c0.614-2.082-1.521-4.321-1.085-6.727c0.465-2.564,2.001-5.629,1.853-8.16
				c-0.175-2.979-0.552-5.697-0.401-8.688c0.137-2.671-3.403-3.683-4.717-5.498c-2.311-3.199-6.103-5.353-10.146-4.607
				c-2.219,0.408-3.431,0.482-5.695,0.416c-2.407-0.072-4.591,0.025-6.881,0.84c-3.801,1.353-5.836,5.354-6.141,9.162
				c-0.246,3.082,0.703,5.668,1.111,8.631c-0.074-0.535-0.547,4.599-0.579,5.054c-0.154,2.204,0.604,4.504,0.555,6.745
				c-0.062,2.826-0.079,5.574,0.049,8.408c0.05,1.105-0.3,7.849-0.354,7.875c2.477-1.285-0.173-5.781-1.059-7.387
				c-0.644-1.164-1.537-2.031-2.117-3.267c-0.61-1.299-0.416-3.497-0.644-4.911c-0.429-2.668-1.472-5.195-1.854-7.902
				c-0.398-2.832-2.228-4.939-2.677-7.766c-0.489-3.07-0.619-6.322-1.797-9.232c-1.177-2.902-2.017-5.1-2.693-8.242
				c-0.571-2.649-1.62-5.271-2.324-7.896c-0.754-2.812-2.605-4.914-2.771-7.849c-0.184-3.243-0.636-6.709-0.521-9.959
				c0.061-1.653,0.477-2.889,0.143-4.557c-0.257-1.275-0.908-2.361-1.116-3.678c-0.555-3.502-0.489-6.261,0.154-9.795
				c0.49-2.695,2.107-5.199,2.71-7.97c1.299-5.989,7.403-11.274,12.685-13.727C195.191,846.082,190.249,846.379,189.057,846.932z"/>
		</g>
	</g>
	<g>
		<path fill="#FFFFFF" d="M191.073,848.758c-20.294,7.998-19.395,45.242-9.084,69.361c7.565,23.854,8.851,46.178,16.245,44.828
			c4.553-1.256-7.063-48.836,5.785-48.203c39.08-6.855,9.215,48.447,20.449,47.391c8.399,1.609,8.399-19.403,14.205-42.633
			c12.442-22.121,13.033-59.688,2.453-68.125c-24.328-19.41-25.031-10.654-45.568-2.193L191.073,848.758z"/>
		<g>
			<path fill="#231F20" d="M190.392,848.619c-17.622,7.461-18.012,31.252-15.798,47.297c1.688,12.236,6.789,23.51,9.822,35.41
				c1.605,6.307,2.952,12.676,4.565,18.979c0.943,3.679,1.896,8.625,4.584,11.519c2.028,2.184,6.195,2.475,6.805-1.002
				c1.013-5.787-0.368-12.373-0.822-18.164c-0.582-7.412-1.458-15.424,0.332-22.73c0.85-3.465,2.391-4.582,5.839-5.053
				c4.086-0.557,8.411-0.33,12.029,1.799c10.2,6.004,5.333,24.021,3.805,33.125c-0.54,3.219-2.268,8.928-0.214,11.926
				c1.519,2.214,5.989,0.634,7.613-0.536c2.572-1.854,3.438-6.031,4.191-8.861c1.646-6.174,2.519-12.576,3.677-18.853
				c1.227-6.629,2.523-12.711,5.358-18.803c2.498-5.367,4.141-11.123,5.406-16.893c2.239-10.213,2.888-20.992,1.4-31.355
				c-0.56-3.905-1.604-7.778-3.423-11.291c-2.177-4.207-6.591-6.785-10.328-9.428c-6.354-4.49-13.178-7.875-20.979-5.635
				c-3.663,1.051-7.04,3.035-10.404,4.771c-2.523,1.306-5.088,2.525-7.69,3.666c-0.996,0.437-3.066-0.102-4.312-0.219
				c-0.488-0.047-2.729,0.83-1.555,0.941c1.868,0.178,4.137,0.854,5.943,0.092c4.593-1.931,8.972-4.24,13.409-6.484
				c3.973-2.008,7.694-3.229,12.148-2.16c5.621,1.349,10.708,5.381,15.224,8.773c7.78,5.852,9.541,14.121,10.204,23.502
				c0.821,11.625-0.971,23.559-4.489,34.627c-1.723,5.418-4.822,10.285-6.105,15.787c-1.664,7.133-2.829,14.371-4.165,21.57
				c-0.854,4.598-1.704,9.334-3.645,13.62c-0.825,1.83-3.855,4.888-5.383,2.058c-1.8-3.338,0.149-9.4,0.729-12.828
				c1.033-6.111,2.12-12.264,1.934-18.484c-0.155-5.151-1.62-10.44-6.104-13.43c-4.536-3.023-11.684-2.625-16.74-1.492
				c-4.44,0.992-5.657,4.719-6.291,8.871c-1.145,7.492-0.188,15.391,0.422,22.889c0.354,4.347,2.472,12.603,0.146,16.65
				c0.059-0.1-2.658-3.174-2.903-3.609c-1.008-1.793-1.611-3.834-2.223-5.782c-1.969-6.281-3.215-12.806-4.745-19.199
				c-2.938-12.263-8.022-23.871-10.269-36.285c-1.927-10.652-2.111-22.021,0.956-32.475c2.086-7.104,6.416-13.584,13.4-16.541
				C193.199,848.283,190.935,848.391,190.392,848.619z"/>
		</g>
	</g>
	<g>
		<path fill="#F59DAC" d="M192.719,855.326c1.568,5.93,4.727,35.055,20.114,34.953c13.952-0.088,19.04-34.068,18.636-40.672"/>
		<g>
			<path fill="#231F20" d="M190.82,856.027c1.944,7.75,3.024,15.514,6.146,22.953c2.945,7.022,9.641,15.272,18.322,12.516
				c7.971-2.531,11.679-11.728,14.039-18.973c2.402-7.378,4.378-15.8,4.041-23.617c-0.092-2.07-3.88-0.492-3.799,1.401
				c0.264,6.064-1.294,12.517-2.779,18.341c-1.614,6.315-4.812,18.155-12.285,19.854c-8.287,1.883-13.221-9.07-15.354-15.104
				c-2.163-6.121-2.963-12.513-4.531-18.773C194.091,852.527,190.357,854.182,190.82,856.027L190.82,856.027z"/>
		</g>
	</g>
	<g>
		<path fill="#F59DAC" d="M191.657,853.672c1.532,5.336,4.517,34.164,19.896,33.982c13.948-0.166,19.239-30.834,18.873-36.783"/>
		<g>
			<path fill="#231F20" d="M189.856,854.336c3.228,11.967,5.05,35.779,22.312,34.832c8.03-0.441,12.776-9.703,15.343-16.127
				c2.77-6.938,5.02-15.295,4.721-22.836c-0.078-1.965-3.675-0.467-3.604,1.33c0.238,6.037-1.627,12.606-3.453,18.271
				c-2.015,6.244-5.919,16.453-13.874,16.248c-7.755-0.201-11.685-9.768-13.738-15.883c-1.887-5.617-2.564-11.477-4.102-17.166
				C192.925,851.021,189.386,852.594,189.856,854.336L189.856,854.336z"/>
		</g>
	</g>
	<g>
		<path fill="#231F20" d="M157.058,858.656c1.562,1.026,3.353,0.037,5.074-0.476c1.479-0.438,3.322-0.506,4.82-1.682
			c1.284-1.01,2.258-2.551,3.491-3.85c1.188-1.25,2.95-2.056,4.038-3.359c1.18-1.414,1.896-3.121,2.892-4.346
			c1.395-1.718,2.22-3.582,3.098-4.304c1.691-1.145,3.254-1.883,4.274-1.93c1.505-0.068,3.403,1.068,4.225,2.688
			c0.559,1.104-0.658,3.276-0.059,4.842c0.482,1.266,1.242,2.606,1.928,4.018c0.698,1.498,1.788,2.771,2.376,4.267
			c0.604,1.534,0.976,3.131,1.536,4.641c0.572,1.543,2.299,2.605,2.905,4.096c0.618,1.521-0.503,3.855,0.235,5.295
			c0.898,1.57,2.495,2.869,3.605,4.242c1.188,1.471,2.719,2.637,4.071,3.646c1.564,1.17,3.316,1.84,4.987,2.049
			c1.699,0.215,3.368-0.273,5.049-1.439c1.242-0.86,3.199-1.604,4.369-3.405c0.9-1.224,1.832-2.396,2.819-3.646
			c0.946-1.195,0.647-3.41,1.62-4.658c0.939-1.211,2.07-2.274,2.981-3.562c0.89-1.254,3.138-1.67,3.948-3.021
			c0.789-1.313-0.28-3.66,0.393-5.09c0.65-1.379,2.358-2.328,2.86-3.838c0.479-1.439,0.043-3.141,0.354-4.713
			c0.29-1.478,1.236-2.66,1.352-4.271c1.221,0.66,2.342,1.633,3.784,3.088c1.121,1.132,2.703,2.08,3.914,3.478
			c1.103,1.27,2.729,2.19,3.875,3.531c1.135,1.325,1.363,3.44,2.512,4.698c1.224,1.341,3.114,1.886,4.32,2.984
			c1.424,1.301,2.222,3.041,3.567,3.752c1.775,0.938,3.479,1.254,5.008,0.621c1.273-0.529,1.951-1.996,2.973-4.021
			c0.796-1.342,2.815-2.586,2.939-4.342c0.108-1.514-1.031-3.252-1.322-4.985c-0.258-1.529-0.408-3.216-0.908-4.855
			c-0.459-1.518-1.749-2.809-2.363-4.373c-0.589-1.498-1.461-2.885-2.146-4.393c-0.68-1.488-1.777-2.754-2.507-4.213
			c-0.742-1.488-0.938-3.22-1.688-4.638c-0.794-1.5-1.485-2.992-2.236-4.367c-0.84-1.541-1.934-2.829-2.646-4.149
			c-0.906-1.68-1.022-3.512-1.586-4.717c-0.651-1.517-0.484-3.369-1.184-4.679c-0.773-1.45-1.936-2.674-2.79-3.893
			c-0.933-1.33-2.493-2.103-3.553-3.182c-1.104-1.132-2.759-1.419-4.036-2.31c-1.257-0.875-2.017-2.51-3.472-3.184
			c-1.359-0.633-2.867-1.041-4.428-1.523c-1.419-0.438-2.945-0.701-4.554-1.041c-1.454-0.307-2.971-0.58-4.595-0.82
			c-1.528-0.127-3.06-1.062-4.672-1.127c-1.55-0.061-3.162-0.02-4.76-0.008c-1.564,0.017-3.141,0.666-4.724,0.769
			c-1.569,0.1-3.079,0.75-4.644,0.946c-1.57,0.201-3.384-0.969-4.919-0.649c-1.56,0.319-2.743,2.137-4.237,2.592
			c-1.523,0.467-3.207,0.396-4.637,1.02c-1.462,0.638-2.288,2.322-3.617,3.14c-1.353,0.832-3.712,0.319-4.894,1.356
			c-1.826,1.781-0.417,2.285-2.501,4.672c-0.964,1.103-3.007,1.632-4.235,3.104c-1.015,1.217-0.779,3.619-1.906,5.035
			c-1.019,1.278-3.167,1.771-4.229,3.178c-1.005,1.33-2.344,2.494-3.347,3.906c-0.979,1.379-1.125,3.362-2.065,4.791
			c-0.941,1.43-1.942,2.812-2.812,4.264c-0.888,1.486-0.803,3.453-1.572,4.936c-0.812,1.558-1.748,2.919-2.389,4.435
			c-0.691,1.646-1.931,2.961-2.363,4.518c-0.49,1.759-0.021,3.449-0.104,5.031c-0.095,1.83-0.267,3.264,0.31,4.769
			C155.469,855.555,155.602,857.557,157.058,858.656z"/>
		<g>
			<path fill="#231F20" d="M156.337,861.666c4.519,1.611,10.267-1.939,13.027-5.307c1.729-2.104,4.107-3.254,5.731-5.472
				c1.905-2.6,3.344-6.311,6.142-8.065c2.66-1.672,7.023-1.146,6.497,2.764c-0.312,2.33,0.457,4.072,1.485,6.137
				c1.66,3.326,3.29,6.392,4.479,9.939c0.323,0.967,0.928,1.654,1.569,2.418c1.443,1.717,1.171,3.182,1.252,5.238
				c0.173,4.393,6.143,8.713,9.533,10.922c4.781,3.113,10.488-0.104,13.729-3.892c3.462-4.045,4.503-10.346,9.149-13.084
				c4.178-2.463,3.042-6.172,3.818-10.196c-0.401,1.104-0.805,2.203-1.205,3.307c1.455-2.17,3.27-3.689,3.903-6.338
				c0.71-2.961,1.033-6.002,1.703-8.982c-0.521,0.937-1.047,1.871-1.568,2.808c3.976,2.448,9.582,7.117,12.083,11.053
				c1.431,2.252,1.782,3.854,4.168,5.326c2.716,1.672,4.104,4.438,7.04,5.733c4.899,2.168,6.854-3.983,9.271-6.729
				c2.659-3.021,2.396-7.311,1.127-10.785c-0.903-2.479-0.796-5.147-1.857-7.609c-1.118-2.586-2.772-5.114-4.033-7.659
				c-1.479-2.986-2.939-5.74-4.195-8.851c-1.518-3.76-4.535-6.826-5.676-10.703c-1.475-5.016-2.256-9.543-6.695-12.948
				c-4.353-3.338-8.467-6.896-13.759-8.513c-5.854-1.787-12.494-3.062-18.578-2.996c-3.117,0.035-6.325,1.104-9.365,1.716
				c-3.085,0.623-4.385-1.533-7.312,0.647c-2.397,1.783-5.271,1.42-7.728,3.008c-0.932,0.604-1.787,1.818-2.621,2.496
				c-1.112,0.898-2.646,0.24-3.82,0.824c-1.602,0.793-2.341,1.885-2.981,3.521c-1.05,2.682-3.359,2.903-5.104,5.041
				c-1.115,1.366-1.53,3.282-1.955,4.94c-0.252,0.982-4.42,3.558-5.271,4.562c-3.365,3.979-6.143,9.073-8.206,13.866
				c-1.094,2.543-1.938,5.08-3.17,7.603c-0.96,1.963-2.223,3.69-2.899,5.793c-1.605,4.963-0.913,10.922,0.55,15.795
				c0.322,1.072,0.812,1.691,1.545,2.512c0.688,0.767,2.883-4.537,1.844-5.694c-4.015-4.48-2.422-10.658-0.136-15.339
				c0.903-1.846,2.01-3.444,2.648-5.418c0.812-2.508,2.229-4.407,3.398-6.733c0.964-1.916,1.504-4.021,2.871-5.707
				c1.832-2.263,4.089-3.597,6.209-5.484c0.863-0.771,1.376-2.084,1.729-3.174c0.934-2.887,2.146-3.086,4.414-4.965
				c1.03-0.855,1.61-2.213,2.094-3.424c0.896-2.257,2.012-1.435,4.132-2.188c2.069-0.738,2.967-2.379,4.786-3.557
				c2.115-1.369,4.566-0.683,6.729-2.365c2.343-1.82,4.222-0.672,6.812-0.539c2,0.1,4.544-0.822,6.475-1.244
				c6.261-1.363,12.374,0.555,18.495,1.808c2.537,0.52,5.002,1.271,7.401,2.239c1.669,0.677,2.841,2.826,4.483,3.763
				c4.45,2.532,8.878,5.955,9.776,11.373c0.776,4.688,3.402,8.133,5.541,12.225c1.287,2.463,2.186,5.014,3.188,7.594
				c1.146,2.941,3.329,5.687,4.652,8.604c1.16,2.561,2.426,4.403,2.903,7.305c0.312,1.891,1.59,3.693,0.468,4.906
				c-1.92,2.076-1.898,4.854-5.455,4.787c-2.751-0.052-4.309-2.72-5.966-4.488c-1.537-1.643-3.722-2.086-5.037-4.062
				c-1.376-2.067-1.73-3.725-3.749-5.414c-3.29-2.754-6.143-6.2-9.819-8.465c-0.675-0.416-1.512,2.547-1.568,2.808
				c-0.444,1.975-1.443,3.77-1.603,5.815c-0.203,2.662-1.494,3.166-2.481,5.515c-0.837,1.983-1.021,4.146-0.896,6.268
				c-0.158-2.672-5.517,3.982-5.865,4.396c-1.448,1.726-1.238,4.179-2.59,5.89c-2.479,3.137-5.322,6.221-9.472,6.981
				c-3.42,0.629-6.945-2.448-9.183-4.516c-2.79-2.576-4.259-4.68-4.406-8.455c-0.09-2.271-1.271-3.471-2.679-5.145
				c-1.051-1.248-1.478-3.82-2.019-5.371c-0.573-1.64-1.67-3.104-2.506-4.615c-0.559-1.01-1.988-3.156-1.825-4.367
				c0.144-1.053,0.379-2.074,0.229-3.137c-0.356-2.51-2.295-3.871-4.697-4.203c-5.076-0.703-8.529,7.803-10.788,10.885
				c-0.851,1.16-2.659,2.125-3.763,3.104c-1.296,1.149-2.214,2.668-3.493,3.85c-1.814,1.676-7.572,2.842-9.646,2.104
				C156.736,855.273,154.988,861.186,156.337,861.666z"/>
		</g>
	</g>
	<g>
		<path fill="#FFFFFF" d="M159.025,858.764c6.824,2.883,19.043-14.647,23.061-17.94c6.939-4.687,6.714,1.416,10.162,8.516
			c2.771,5.922,4.344,11.916,7.08,17.229c4.721,8.237,12.97,15.041,19.576,4.889c6.116-8.291,14.02-22.549,15.225-32.367
			c8.1,4.377,23.148,32.896,30.135,19.066c6.007-10.111-10.126-34.32-14.283-43.203c-5.621-13.053-12.729-17.707-27.322-19.857
			c-12.717-1.047-27.721-0.129-37.439,8.388C185.215,803.479,149.507,841.074,159.025,858.764z"/>
		<g>
			<path fill="#231F20" d="M158.69,860.158c7.107,2.313,15.262-9.281,19.13-13.674c2.731-3.099,7.818-9.181,10.933-3.242
				c3.535,6.742,5.734,14.348,8.627,21.381c2.114,5.143,5.583,10.184,10.693,12.678c5.549,2.707,9.502-2.795,12.238-6.692
				c6.539-9.31,12.608-20.402,14.283-31.802c-0.268,0.56-0.535,1.117-0.803,1.677c5.455,3.217,22.436,31.084,29.615,20.211
				c3.871-5.861,2.829-12.545,0.753-18.904c-2.929-8.953-7.938-17.111-12.352-25.377c-4.354-8.16-7.652-15.453-16.501-19.51
				c-9.973-4.574-23.253-4.646-33.785-2.281c-7.179,1.608-13.56,4.57-18.46,10.065c-4.741,5.318-9.16,10.931-13.225,16.781
				c-6.818,9.812-17.425,26.211-11.241,38.613c0.12,0.242,1.21-1.924,0.854-2.639c-4.307-8.638,1.342-18.933,5.688-26.414
				c4.228-7.271,9.388-14.015,14.795-20.438c4.128-4.904,7.779-8.465,13.912-11.08c11.236-4.791,25.984-4.524,37.539-1.035
				c10.328,3.119,14.564,10.849,19.169,19.814c4.563,8.885,9.87,17.371,12.992,26.928c1.521,4.656,3.099,11.822-1.971,14.861
				c-3.065,1.84-7.099-1.74-9.135-3.568c-5.979-5.367-10.139-12.547-16.329-17.686c-0.52-0.433-1.074-0.793-1.653-1.135
				c-0.376-0.224-0.781,1.522-0.804,1.674c-1.061,7.207-4.407,13.934-7.894,20.246c-2.795,5.065-6.403,12.614-11.827,15.149
				c-5.518,2.578-10.938-4.475-13.452-8.293c-3.888-5.908-5.518-13.447-8.458-19.856c-1.312-2.863-2.083-8.968-6.22-8.781
				c-2.957,0.135-5.396,3.436-7.168,5.426c-3.983,4.48-12.102,16.451-19.281,14.111C158.851,857.203,158.077,859.959,158.69,860.158
				z"/>
		</g>
	</g>
	<circle fill="#231F20" cx="199.879" cy="823.409" r="4.7"/>
	<circle fill="#231F20" cx="223.468" cy="823.273" r="4.701"/>
	<g>
		<g>
			<path fill="#231F20" d="M191.511,902.771c7.049,18.682,30.401,19.95,40.961,3.68c1.444-2.228-4.084-4.517-5.229-2.748
				c-3.543,5.457-8.424,9.609-14.998,10.643c-7.646,1.199-12.812-5.043-15.236-11.467
				C196.267,900.914,190.448,899.959,191.511,902.771L191.511,902.771z"/>
		</g>
	</g>
	<g>
		
			<path fill="none" stroke="#A7A8AC" stroke-width="4.703" stroke-linecap="round" stroke-linejoin="round" stroke-miterlimit="10" d="
			M190.397,848.111c-1.003-2.435-1.156-1.73-2.015-4.883c-0.396-1.453-0.867-3.195-1.236-5.146
			c-0.303-1.598,0.066-3.438-0.138-5.301c-0.184-1.664-0.711-3.388-0.762-5.217c-0.048-1.697,0.244-3.451,0.354-5.259
			c0.104-1.709-0.148-3.512,0.129-5.289c0.269-1.698,0.939-3.364,1.398-5.1"/>
	</g>
	<g>
		
			<path fill="none" stroke="#A7A8AC" stroke-width="4.703" stroke-linecap="round" stroke-linejoin="round" stroke-miterlimit="10" d="
			M235.735,842.654c0.618-2.523,0.111-1.929,0.521-5.179c0.185-1.461,0.312-3.188,0.431-5.157c0.096-1.588,0.708-3.31,0.706-5.177
			c-0.001-1.639-0.392-3.37-0.502-5.19c-0.102-1.658-0.024-3.414-0.243-5.199c-0.204-1.666-0.837-3.324-1.164-5.08"/>
	</g>
	<polygon fill="#231F20" points="228.459,859.773 229.273,863.922 223.425,871.389 221.531,868.898 	"/>
	<g>
		<g>
			<path fill="#A7A8AC" d="M179.06,885.465c-4.224,4.979-7.385,10.941-7.021,17.629c0.101,1.877,2.852,1.33,2.76-0.367
				c-0.32-5.95,2.499-11.129,6.25-15.553C182.255,885.748,180.27,884.037,179.06,885.465L179.06,885.465z"/>
		</g>
	</g>
	<g>
		<g>
			<path fill="#A7A8AC" d="M182.655,894.312c-4.224,4.979-7.387,10.94-7.021,17.629c0.102,1.877,2.853,1.33,2.76-0.365
				c-0.322-5.953,2.498-11.131,6.25-15.555C185.85,894.6,183.865,892.887,182.655,894.312L182.655,894.312z"/>
		</g>
	</g>
	<g>
		<g>
			<path fill="#A7A8AC" d="M238.458,887.301c3.655,3.724,4.18,10.715,5.155,15.582c0.204,1.021,2.562-1.074,2.346-2.154
				c-1.021-5.084-1.582-12.049-5.405-15.94C239.81,884.029,237.646,886.473,238.458,887.301L238.458,887.301z"/>
		</g>
	</g>
	<path fill="#231F20" stroke="#231F20" stroke-width="1.2379" stroke-miterlimit="10" d="M234.527,849.268
		c0,0,9.68,3.039,13.273,25.438c-2.488-17.42-5.254-22.674-5.254-22.674l-7.743-5.254L234.527,849.268z"/>
	<g>
		<path fill="#6E6E71" d="M204.062,861.166c-3.82-7.113-0.176-12.623,8.103-12.244c8.275,0.379,11.399,6.199,6.944,12.935
			C214.654,868.591,207.883,868.279,204.062,861.166z"/>
	</g>
	<g>
		
			<linearGradient id="SVGID_1_" gradientUnits="userSpaceOnUse" x1="-974.5408" y1="1621.4531" x2="-974.5408" y2="1606.6669" gradientTransform="matrix(1 0 0 1 1166.3447 -648.3066)">
			<stop  offset="0.1472" style="stop-color:#757679"/>
			<stop  offset="0.2925" style="stop-color:#797A7D"/>
			<stop  offset="0.4379" style="stop-color:#858689"/>
			<stop  offset="0.5835" style="stop-color:#999A9C"/>
			<stop  offset="0.7292" style="stop-color:#B5B6B7"/>
			<stop  offset="0.8736" style="stop-color:#D9D9DA"/>
			<stop  offset="1" style="stop-color:#FFFFFF"/>
		</linearGradient>
		<path fill="url(#SVGID_1_)" d="M189.828,952.643c-1.016,6.347-11.221,11.814-4.896,14.457c16.279,6.808,17.582-5.896,14.419-15.59
			"/>
		<g>
			<path fill="#231F20" d="M188.058,953.549c-0.577,2.76-2.321,4.924-4.04,7.082c-1.049,1.316-3.004,3.291-2.901,5.146
				c0.125,2.276,3.231,2.903,4.952,3.477c2.515,0.834,5.251,1.201,7.853,0.598c9.305-2.168,9.57-11.864,7.198-19.396
				c-0.139-0.434-3.818,1.201-3.531,2.113c1.011,3.207,1.6,6.53,1.261,9.896c-0.146,1.443-0.567,2.896-1.312,4.146
				c-1.123,1.879-3.899,1.315-5.733,1.008c-3.613-0.607-8.962-1.961-6.072-6.297c2.104-3.152,5.062-5.726,5.869-9.582
				C191.671,951.385,188.275,952.514,188.058,953.549L188.058,953.549z"/>
		</g>
	</g>
	<g>
		
			<linearGradient id="SVGID_2_" gradientUnits="userSpaceOnUse" x1="-938.9993" y1="1625.9023" x2="-938.9993" y2="1608.9341" gradientTransform="matrix(1 0 0 1 1166.3447 -648.3066)">
			<stop  offset="0.1472" style="stop-color:#757679"/>
			<stop  offset="0.2925" style="stop-color:#797A7D"/>
			<stop  offset="0.4379" style="stop-color:#858689"/>
			<stop  offset="0.5835" style="stop-color:#999A9C"/>
			<stop  offset="0.7292" style="stop-color:#B5B6B7"/>
			<stop  offset="0.8736" style="stop-color:#D9D9DA"/>
			<stop  offset="1" style="stop-color:#FFFFFF"/>
		</linearGradient>
		<path fill="url(#SVGID_2_)" d="M222.338,951.938c-1.771,4.937-8.359,18.519,6.021,20.279c14.38,1.322,1.913-14.641,4.124-19.574"
			/>
		<g>
			<path fill="#231F20" d="M220.927,951.523c-1.502,4.096-3.682,8.666-2.939,13.146c0.819,4.939,5.237,7.264,9.854,7.957
				c4.499,0.676,9.385,0.086,8.902-5.506c-0.373-4.318-4.373-9.791-2.853-14.066c0.205-0.575-2.589-1.479-2.82-0.825
				c-1.881,5.282,6.854,14.704,1.267,18.731c-3.093,2.229-8.6,0.262-10.527-2.629c-1.102-1.648-1.176-3.785-1.051-5.689
				c0.234-3.582,1.771-6.967,2.989-10.293C223.957,951.781,221.167,950.871,220.927,951.523L220.927,951.523z"/>
		</g>
	</g>
	
		<line fill="none" stroke="#231F20" stroke-width="2.3515" stroke-linecap="round" stroke-linejoin="round" stroke-miterlimit="10" x1="189.176" y1="960.982" x2="185.773" y2="967.947"/>
	
		<line fill="none" stroke="#231F20" stroke-width="2.3515" stroke-linecap="round" stroke-linejoin="round" stroke-miterlimit="10" x1="193.765" y1="962.088" x2="190.834" y2="968.818"/>
	
		<line fill="none" stroke="#231F20" stroke-width="2.3515" stroke-linecap="round" stroke-miterlimit="10" x1="229.872" y1="963.34" x2="230.713" y2="971.73"/>
	
		<line fill="none" stroke="#231F20" stroke-width="2.3515" stroke-linecap="round" stroke-miterlimit="10" x1="225.287" y1="962.766" x2="225.344" y2="971.197"/>
	
		<path fill="none" stroke="#231F20" stroke-width="2.3515" stroke-linecap="round" stroke-linejoin="round" stroke-miterlimit="10" d="
		M209.301,860.066c0,0,0.375-3.479-2.983-3.312"/>
	
		<path fill="none" stroke="#231F20" stroke-width="2.3515" stroke-linecap="round" stroke-linejoin="round" stroke-miterlimit="10" d="
		M213.906,860.303c0,0-0.377-3.479,2.982-3.313"/>
</g>
<g>
	<g>
		<image overflow="visible" width="301" height="315" xlink:href="91008DCF.png"  transform="matrix(1 0 0 1 -20.5525 -15.0664)">
		</image>
	</g>
	<linearGradient id="SVGID_3_" gradientUnits="userSpaceOnUse" x1="32.6355" y1="125.7285" x2="224.2473" y2="125.7285">
		<stop  offset="0" style="stop-color:#0895D3"/>
		<stop  offset="0.3401" style="stop-color:#2CA5DC"/>
		<stop  offset="0.7753" style="stop-color:#55B6E6"/>
		<stop  offset="1" style="stop-color:#65BDEA"/>
	</linearGradient>
	<path fill="url(#SVGID_3_)" stroke="#FFFFFF" stroke-width="0.9581" stroke-miterlimit="10" d="M32.635,125.733
		c0-52.914,42.893-95.809,95.807-95.809c52.912,0,95.805,42.895,95.805,95.809c0,52.904-42.893,95.799-95.805,95.799
		C75.529,221.532,32.635,178.638,32.635,125.733z"/>
	<linearGradient id="SVGID_4_" gradientUnits="userSpaceOnUse" x1="87.3894" y1="25.4204" x2="60.4586" y2="38.1377">
		<stop  offset="0" style="stop-color:#1C9CD8"/>
		<stop  offset="0.0445" style="stop-color:#28A1DA;stop-opacity:0.9555"/>
		<stop  offset="0.3986" style="stop-color:#83C9EA;stop-opacity:0.6014"/>
		<stop  offset="0.6864" style="stop-color:#C6E6F5;stop-opacity:0.3136"/>
		<stop  offset="0.8937" style="stop-color:#EFF8FC;stop-opacity:0.1063"/>
		<stop  offset="1" style="stop-color:#FFFFFF;stop-opacity:0"/>
	</linearGradient>
	<path fill="url(#SVGID_4_)" d="M83.322,18.485c0,0-16.744,8.598-24.664,15.838l6.111,10.636c0,0,12.443-9.504,25.115-14.258
		L83.322,18.485z"/>
	
		<linearGradient id="SVGID_5_" gradientUnits="userSpaceOnUse" x1="249.3137" y1="-83.1938" x2="222.3832" y2="-70.4767" gradientTransform="matrix(0.6195 0.785 -0.785 0.6195 -38.3855 -112.6993)">
		<stop  offset="0" style="stop-color:#1C9CD8"/>
		<stop  offset="0.0445" style="stop-color:#28A1DA;stop-opacity:0.9555"/>
		<stop  offset="0.3986" style="stop-color:#83C9EA;stop-opacity:0.6014"/>
		<stop  offset="0.6864" style="stop-color:#C6E6F5;stop-opacity:0.3136"/>
		<stop  offset="0.8937" style="stop-color:#EFF8FC;stop-opacity:0.1063"/>
		<stop  offset="1" style="stop-color:#FFFFFF;stop-opacity:0"/>
	</linearGradient>
	<path fill="url(#SVGID_5_)" d="M184.296,23.982c0,0-17.122-7.817-27.713-9.547L152.02,25.82c0,0,15.17,3.882,26.751,10.883
		L184.296,23.982z"/>
	
		<linearGradient id="SVGID_6_" gradientUnits="userSpaceOnUse" x1="195.4661" y1="15.5039" x2="168.5346" y2="28.2215" gradientTransform="matrix(0.8939 0.4482 -0.4482 0.8939 -32.9841 -84.8541)">
		<stop  offset="0" style="stop-color:#652D90"/>
		<stop  offset="0.3582" style="stop-color:#A483BD;stop-opacity:0.6418"/>
		<stop  offset="0.6653" style="stop-color:#D5C6E1;stop-opacity:0.3347"/>
		<stop  offset="0.8865" style="stop-color:#F3EFF7;stop-opacity:0.1135"/>
		<stop  offset="1" style="stop-color:#FFFFFF;stop-opacity:0"/>
	</linearGradient>
	<path fill="url(#SVGID_6_)" d="M134.268,8.593c0,0-18.822,0.18-29.148,3.103l0.694,12.244c0,0,15.386-2.916,28.842-1.485
		L134.268,8.593z"/>
	
		<linearGradient id="SVGID_7_" gradientUnits="userSpaceOnUse" x1="312.9514" y1="-87.1987" x2="286.02" y2="-74.4811" gradientTransform="matrix(0.3208 0.9471 -0.9471 0.3208 33.4762 -207.4913)">
		<stop  offset="0" style="stop-color:#652D90"/>
		<stop  offset="0.3582" style="stop-color:#A483BD;stop-opacity:0.6418"/>
		<stop  offset="0.6653" style="stop-color:#D5C6E1;stop-opacity:0.3347"/>
		<stop  offset="0.8865" style="stop-color:#F3EFF7;stop-opacity:0.1135"/>
		<stop  offset="1" style="stop-color:#FFFFFF;stop-opacity:0"/>
	</linearGradient>
	<path fill="url(#SVGID_7_)" d="M221.72,54.854c0,0-13.515-13.1-22.914-18.278l-8.112,9.198c0,0,12.993,8.74,21.559,19.216
		L221.72,54.854z"/>
	
		<linearGradient id="SVGID_8_" gradientUnits="userSpaceOnUse" x1="2.3606" y1="93.6685" x2="-22.0765" y2="105.2082" gradientTransform="matrix(0.9307 -0.3657 0.3657 0.9307 13.5209 -35.9045)">
		<stop  offset="0" style="stop-color:#652D90"/>
		<stop  offset="0.3582" style="stop-color:#A483BD;stop-opacity:0.6418"/>
		<stop  offset="0.6653" style="stop-color:#D5C6E1;stop-opacity:0.3347"/>
		<stop  offset="0.8865" style="stop-color:#F3EFF7;stop-opacity:0.1135"/>
		<stop  offset="1" style="stop-color:#FFFFFF;stop-opacity:0"/>
	</linearGradient>
	<path fill="url(#SVGID_8_)" d="M45.043,43.964c0,0-12.443,14.126-17.165,23.761l9.575,7.665c0,0,8.106-13.397,18.163-22.453
		L45.043,43.964z"/>
	<g opacity="0.41">
		<g>
			<path fill-rule="evenodd" clip-rule="evenodd" fill="none" stroke="#FFFFFF" stroke-width="1.7253" stroke-linecap="round" d="
				M75.595,83.776c2.055,2.041,3.097,4.826,3.011,7.704"/>
			<path fill-rule="evenodd" clip-rule="evenodd" fill="none" stroke="#FFFFFF" stroke-width="1.7202" stroke-linecap="round" d="
				M78.606,91.48c4.995,0.865,9.982,1.693,14.975,2.574"/>
			<path fill-rule="evenodd" clip-rule="evenodd" fill="none" stroke="#FFFFFF" stroke-width="1.7515" stroke-linecap="round" d="
				M78.606,91.48c-0.668,1.714-1.599,3.305-2.699,4.765"/>
			<path fill-rule="evenodd" clip-rule="evenodd" fill="none" stroke="#FFFFFF" stroke-width="1.7052" stroke-linecap="round" d="
				M75.907,96.245c4.116,4.79,8.212,9.579,12.276,14.408"/>
			
				<line fill-rule="evenodd" clip-rule="evenodd" fill="none" stroke="#FFFFFF" stroke-width="1.7594" stroke-linecap="round" x1="64.542" y1="95.643" x2="56.621" y2="99.717"/>
			<path fill-rule="evenodd" clip-rule="evenodd" fill="none" stroke="#FFFFFF" stroke-width="1.7115" stroke-linecap="round" d="
				M48.173,69.093c5.567,5.185,11.13,10.354,16.667,15.574"/>
			<path fill-rule="evenodd" clip-rule="evenodd" fill="none" stroke="#FFFFFF" stroke-width="1.7286" stroke-linecap="round" d="
				M64.841,84.667c2.998-2.619,7.37-3.034,10.755-0.891"/>
			<path fill-rule="evenodd" clip-rule="evenodd" fill="none" stroke="#FFFFFF" stroke-width="1.6963" stroke-linecap="round" d="
				M75.595,83.776c3.121-4.146,6.335-8.222,9.44-12.381"/>
			<path fill-rule="evenodd" clip-rule="evenodd" fill="none" stroke="#FFFFFF" stroke-width="1.7216" stroke-linecap="round" d="
				M85.035,71.396c2.788,1.472,6.182,1.044,7.782-1.622c2.958-4.923-3.252-10.392-7.767-6.683
				C82.649,65.067,82.531,68.716,85.035,71.396"/>
			<path fill-rule="evenodd" clip-rule="evenodd" fill="none" stroke="#FFFFFF" stroke-width="1.7145" stroke-linecap="round" d="
				M48.173,69.093c2.27-3.355-2.524-6.49-4.438-3.398C42.207,68.161,45.484,71.208,48.173,69.093"/>
			<path fill-rule="evenodd" clip-rule="evenodd" fill="none" stroke="#FFFFFF" stroke-width="1.7638" stroke-linecap="round" d="
				M64.841,84.667c-1.066,1.739-1.819,3.643-2.081,5.681"/>
			<path fill-rule="evenodd" clip-rule="evenodd" fill="none" stroke="#FFFFFF" stroke-width="1.726" stroke-linecap="round" d="
				M62.76,90.348c0.371,3.016,2.196,5.541,4.746,7.134"/>
			<path fill-rule="evenodd" clip-rule="evenodd" fill="none" stroke="#FFFFFF" stroke-width="1.7643" stroke-linecap="round" d="
				M67.506,97.481c2.865,0.768,5.88,0.365,8.401-1.236"/>
			<path fill-rule="evenodd" clip-rule="evenodd" fill="none" stroke="#FFFFFF" stroke-width="1.7218" stroke-linecap="round" d="
				M93.581,94.055c0.154,3.266,2.88,4.677,5.069,3.388C103.774,94.422,95.881,87.621,93.581,94.055"/>
			<path fill-rule="evenodd" clip-rule="evenodd" fill="none" stroke="#FFFFFF" stroke-width="1.7323" stroke-linecap="round" d="
				M88.183,110.653c-1.342,1.904-1.7,4.278-0.051,5.928c3.841,3.85,9.16-2.469,5.272-5.761
				C91.889,109.535,90.275,109.751,88.183,110.653"/>
		</g>
	</g>
	<g opacity="0.41">
		<g>
			<path fill-rule="evenodd" clip-rule="evenodd" fill="none" stroke="#FFFFFF" stroke-width="1.7253" stroke-linecap="round" d="
				M185.111,82.417c2.055,2.044,3.099,4.827,3.011,7.706"/>
			<path fill-rule="evenodd" clip-rule="evenodd" fill="none" stroke="#FFFFFF" stroke-width="1.7202" stroke-linecap="round" d="
				M188.121,90.123c4.995,0.865,9.982,1.694,14.977,2.574"/>
			<path fill-rule="evenodd" clip-rule="evenodd" fill="none" stroke="#FFFFFF" stroke-width="1.7515" stroke-linecap="round" d="
				M188.121,90.123c-0.667,1.714-1.599,3.305-2.698,4.763"/>
			<path fill-rule="evenodd" clip-rule="evenodd" fill="none" stroke="#FFFFFF" stroke-width="1.7052" stroke-linecap="round" d="
				M185.423,94.886c4.117,4.79,8.212,9.581,12.276,14.411"/>
			<path fill-rule="evenodd" clip-rule="evenodd" fill="none" stroke="#FFFFFF" stroke-width="1.7038" stroke-linecap="round" d="
				M177.02,96.122c-1.383,3.39-2.938,6.701-4.315,10.098"/>
			<path fill-rule="evenodd" clip-rule="evenodd" fill="none" stroke="#FFFFFF" stroke-width="1.7594" stroke-linecap="round" d="
				M172.276,88.988c-2.819,0.168-5.638,0.198-8.457,0.365"/>
			<path fill-rule="evenodd" clip-rule="evenodd" fill="none" stroke="#FFFFFF" stroke-width="1.7365" stroke-linecap="round" d="
				M163.819,89.354c-0.461,3.251-3.594,4.783-6.038,3.437c-5.512-3.037,1.593-11.012,5.202-5.581
				C163.449,87.914,163.463,88.403,163.819,89.354"/>
			<path fill-rule="evenodd" clip-rule="evenodd" fill="none" stroke="#FFFFFF" stroke-width="1.7115" stroke-linecap="round" d="
				M157.688,67.736c5.569,5.184,11.131,10.353,16.669,15.573"/>
			<path fill-rule="evenodd" clip-rule="evenodd" fill="none" stroke="#FFFFFF" stroke-width="1.7286" stroke-linecap="round" d="
				M174.357,83.31c2.997-2.619,7.371-3.035,10.754-0.893"/>
			<path fill-rule="evenodd" clip-rule="evenodd" fill="none" stroke="#FFFFFF" stroke-width="1.6963" stroke-linecap="round" d="
				M185.111,82.417c3.122-4.146,6.335-8.22,9.442-12.38"/>
			<path fill-rule="evenodd" clip-rule="evenodd" fill="none" stroke="#FFFFFF" stroke-width="1.7216" stroke-linecap="round" d="
				M194.553,70.037c2.785,1.473,6.18,1.045,7.78-1.623c2.958-4.923-3.252-10.392-7.767-6.68
				C192.163,63.708,192.047,67.359,194.553,70.037"/>
			<path fill-rule="evenodd" clip-rule="evenodd" fill="none" stroke="#FFFFFF" stroke-width="1.7145" stroke-linecap="round" d="
				M157.688,67.736c2.27-3.355-2.522-6.491-4.437-3.399C151.725,66.805,155,69.85,157.688,67.736"/>
			<path fill-rule="evenodd" clip-rule="evenodd" fill="none" stroke="#FFFFFF" stroke-width="1.7638" stroke-linecap="round" d="
				M174.357,83.31c-1.067,1.739-1.82,3.641-2.081,5.679"/>
			<path fill-rule="evenodd" clip-rule="evenodd" fill="none" stroke="#FFFFFF" stroke-width="1.726" stroke-linecap="round" d="
				M172.276,88.988c0.371,3.017,2.194,5.543,4.744,7.134"/>
			<path fill-rule="evenodd" clip-rule="evenodd" fill="none" stroke="#FFFFFF" stroke-width="1.7643" stroke-linecap="round" d="
				M177.02,96.122c2.867,0.768,5.881,0.367,8.403-1.236"/>
			<path fill-rule="evenodd" clip-rule="evenodd" fill="none" stroke="#FFFFFF" stroke-width="1.7218" stroke-linecap="round" d="
				M203.098,92.697c0.154,3.266,2.879,4.677,5.068,3.388C213.288,93.064,205.397,86.264,203.098,92.697"/>
			<path fill-rule="evenodd" clip-rule="evenodd" fill="none" stroke="#FFFFFF" stroke-width="1.7301" stroke-linecap="round" d="
				M172.704,106.22c-6.841-2.328-10.214,7.759-3.791,9.864C174.661,117.968,178.583,109.354,172.704,106.22"/>
			<path fill-rule="evenodd" clip-rule="evenodd" fill="none" stroke="#FFFFFF" stroke-width="1.7323" stroke-linecap="round" d="
				M197.699,109.297c-1.343,1.903-1.699,4.279-0.053,5.926c3.842,3.849,9.163-2.466,5.273-5.76
				C201.406,108.178,199.79,108.395,197.699,109.297"/>
		</g>
	</g>
	<g>
		<g>
			<g>
				<path fill="#4E1A71" stroke="#FFFFFF" stroke-width="1.91" stroke-miterlimit="10" d="M212.842,256.69H49.301
					c-6.595,0-11.962-5.365-11.962-11.964v-41.872c0-6.595,5.367-11.964,11.962-11.964h163.541c6.597,0,11.962,5.369,11.962,11.964
					v41.872C224.804,251.325,219.439,256.69,212.842,256.69z"/>
			</g>
		</g>
		<g>
			<path fill-rule="evenodd" clip-rule="evenodd" fill="#FFF694" stroke="#FFFAC9" stroke-width="0.6788" d="M48.934,247.803
				c-1.851,0-3.356-1.504-3.356-3.356v-41.873c0-1.852,1.506-3.359,3.356-3.359h163.541c1.851,0,3.356,1.508,3.356,3.359v41.873
				c0,1.853-1.506,3.356-3.356,3.356H48.934z"/>
		</g>
		<g>
			<path fill="#1B75BB" d="M91.606,206.937v-2.709h5.981v12.385h-5.981c-1.76-4.472-4.697-6.706-8.809-6.706
				c-2.042,0-3.853,0.528-5.433,1.589c-1.582,1.06-2.813,2.504-3.692,4.334c-0.881,1.831-1.32,3.859-1.32,6.087
				c0,2.089,0.416,3.999,1.25,5.736c0.833,1.736,1.997,3.123,3.493,4.16c1.496,1.035,3.217,1.554,5.164,1.554
				c2.398,0,4.482-0.83,6.251-2.488c1.769-1.66,2.955-3.843,3.563-6.557l6.94,3.296c-2.617,8.164-8.42,12.244-17.409,12.244
				c-3.863,0-7.238-0.74-10.13-2.22c-2.889-1.479-5.113-3.581-6.671-6.31c-1.557-2.725-2.336-5.91-2.336-9.557
				c0-3.442,0.802-6.541,2.406-9.299c1.604-2.758,3.822-4.919,6.647-6.487c2.828-1.563,5.994-2.347,9.501-2.347
				C85.273,203.643,88.802,204.743,91.606,206.937z"/>
			<path fill="#1B75BB" d="M127.356,239.442h-7.804v-1.918c-2.229,1.526-4.455,2.291-6.684,2.291c-2.695,0-4.853-0.694-6.473-2.079
				c-1.619-1.386-2.43-3.255-2.43-5.608c0-2.493,0.907-4.49,2.723-5.994c1.814-1.502,4.225-2.255,7.232-2.255
				c1.043,0,1.974,0.112,2.792,0.339s1.764,0.61,2.839,1.157v-1.964c0-1.246-0.39-2.242-1.169-2.991
				c-0.778-0.748-1.946-1.122-3.505-1.122c-1.698,0-3.2,0.654-4.509,1.964l-6.309-1.145c1.916-3.865,5.873-5.796,11.871-5.796
				c4.112,0,7.044,0.845,8.798,2.536c1.751,1.689,2.628,4.304,2.628,7.839v9.092 M114.62,234.932c1.403,0,3.046-0.84,4.932-2.523
				v-2.196c-1.682-1.091-3.224-1.636-4.627-1.636c-1.121,0-1.978,0.264-2.569,0.794c-0.593,0.532-0.89,1.285-0.89,2.267
				C111.465,233.832,112.519,234.932,114.62,234.932z"/>
			<path fill="#1B75BB" d="M136.071,245.882c-0.796,0-1.412-0.024-1.848-0.07c-0.434-0.045-0.73-0.069-0.887-0.069v-6.331
				c0.327,0.077,0.811,0.114,1.449,0.114c1.807,0,3.044-0.32,3.715-0.958c0.669-0.639,1.005-1.761,1.005-3.364v-14.572h-3.716
				v-5.747h11.566v19.666c0,2.803-0.342,5.019-1.027,6.646c-0.687,1.628-1.842,2.816-3.471,3.566
				C141.23,245.507,138.967,245.882,136.071,245.882z M147.801,207.896c0,1.184-0.425,2.199-1.272,3.049
				c-0.852,0.852-1.868,1.272-3.05,1.272c-1.185,0-2.199-0.415-3.039-1.246c-0.84-0.835-1.261-1.86-1.261-3.075
				c0-1.2,0.421-2.216,1.261-3.049s1.854-1.25,3.039-1.25c1.151,0,2.161,0.423,3.025,1.272
				C147.368,205.72,147.801,206.728,147.801,207.896z"/>
			<path fill="#1B75BB" d="M175.933,239.442h-7.804v-1.918c-2.229,1.526-4.457,2.291-6.684,2.291c-2.696,0-4.854-0.694-6.473-2.079
				c-1.621-1.386-2.43-3.255-2.43-5.608c0-2.493,0.906-4.49,2.723-5.994c1.813-1.502,4.225-2.255,7.23-2.255
				c1.045,0,1.974,0.112,2.793,0.339c0.817,0.227,1.764,0.61,2.84,1.157v-1.964c0-1.246-0.39-2.242-1.169-2.991
				c-0.779-0.748-1.948-1.122-3.506-1.122c-1.698,0-3.2,0.654-4.509,1.964l-6.31-1.145c1.917-3.865,5.872-5.796,11.871-5.796
				c4.111,0,7.046,0.845,8.796,2.536c1.754,1.689,2.63,4.304,2.63,7.839v9.092V239.442z M163.198,234.932
				c1.403,0,3.047-0.84,4.932-2.523v-2.196c-1.684-1.091-3.226-1.636-4.627-1.636c-1.123,0-1.979,0.264-2.57,0.794
				c-0.593,0.532-0.889,1.285-0.889,2.267C160.043,233.832,161.094,234.932,163.198,234.932z"/>
			<path fill="#1B75BB" d="M199.042,233.788v5.654h-15.164v-5.654h3.831v-23.929h-3.831v-5.632h11.684v29.561H199.042z"/>
		</g>
	</g>
	<circle fill="#4E1A71" stroke="#FFFFFF" stroke-width="0.9621" stroke-miterlimit="10" cx="135.296" cy="15.957" r="7.414"/>
	<circle fill="#4E1A71" stroke="#FFFFFF" stroke-width="0.9621" stroke-miterlimit="10" cx="217.235" cy="60.16" r="7.414"/>
	<circle fill="#1C9CD8" stroke="#FFFFFF" stroke-width="0.9621" stroke-miterlimit="10" cx="181.914" cy="30.084" r="7.414"/>
	<circle fill="#4E1A71" stroke="#FFFFFF" stroke-width="0.9621" stroke-miterlimit="10" cx="49.916" cy="48.153" r="7.413"/>
	<path fill="#1C9CD8" stroke="#FFFFFF" stroke-width="0.9621" stroke-miterlimit="10" d="M94.636,24.496
		c0,4.097-3.319,7.412-7.414,7.412c-4.096,0-7.414-3.315-7.414-7.412c0-4.096,3.318-7.415,7.414-7.415
		C91.317,17.081,94.636,20.4,94.636,24.496z"/>
	
		<circle opacity="0.29" fill-rule="evenodd" clip-rule="evenodd" fill="none" stroke="#FFFFFF" stroke-width="1.4431" stroke-linecap="round" cx="136.722" cy="167.137" r="5.204"/>
	
		<circle opacity="0.29" fill-rule="evenodd" clip-rule="evenodd" fill="none" stroke="#FFFFFF" stroke-width="1.0667" stroke-linecap="round" cx="119.525" cy="152.203" r="3.846"/>
	
		<circle opacity="0.35" fill-rule="evenodd" clip-rule="evenodd" fill="none" stroke="#FFFFFF" stroke-width="1.4431" stroke-linecap="round" cx="51.19" cy="103.11" r="5.205"/>
	<g>
		<g>
			<linearGradient id="SVGID_9_" gradientUnits="userSpaceOnUse" x1="98.5315" y1="129.1812" x2="93.1015" y2="82.3476">
				<stop  offset="0" style="stop-color:#A6A8AB"/>
				<stop  offset="1" style="stop-color:#E6E7E8"/>
			</linearGradient>
			<path fill="url(#SVGID_9_)" d="M117.997,118.693c-25.456,13.917-49.776,3.449-40.05-12.22c6.11-9.843,7.806-22.062-5.77-23.419
				c-10.861-0.679-14.254,10.184-3.394,10.862c1.357-6.109,5.43-5.432,6.788,0c1.357,4.071-10.861,11.2-10.521,20.701
				c0.775,21.727,35.299,27.825,45.48,29.184c10.861,0.68,22.741-15.604,17.988-25.787"/>
			<g>
				<path fill="#231F20" d="M117.157,118.676c-9.903,5.211-32.965,11.939-39.619-2.219c-2.251-4.791,1.197-9.344,3.292-13.412
					c1.995-3.873,3.252-8.338,2.568-12.696c-1.223-7.789-11.35-8.854-17.351-6.643c-2.118,0.78-4.827,2.767-4.969,5.247
					c-0.224,3.887,3.612,5.042,6.797,5.38c0.428,0.045,1.839-0.072,1.993-0.616c0.581-2.049,1.771-4.729,3.722-1.815
					c0.736,1.101,1.146,2.591,0.82,3.883c-0.542,2.151-2.729,4.15-4.097,5.791c-4.117,4.938-7.12,9.775-6.022,16.383
					c1.892,11.394,14.102,17.669,23.833,21.203c4.841,1.756,9.866,2.995,14.916,3.982c3.458,0.677,7.243,1.639,10.742,0.719
					c10.338-2.715,20.258-15.286,15.838-26.144c-0.207-0.508-2.359,0.208-2.203,0.59c2.763,6.786-0.482,13.989-4.981,19.197
					c-5.156,5.96-11.401,6.014-18.391,4.647c-10.649-2.08-21.771-5.534-30.168-12.667c-4.295-3.648-7.029-8.534-7.662-14.125
					c-0.754-6.671,4.394-11.824,8.242-16.58c1.872-2.313,4.093-8.305-0.696-9.449c-3.408-0.814-5.223,1.816-6.062,4.783
					c0.664-0.206,1.329-0.411,1.993-0.616c-3.914-0.416-8.148-2.671-5.625-7.054c4.366-7.585,15.617-1.552,17.129,4.493
					c2.236,8.938-6.939,15.154-6.494,23.585c0.393,7.439,9.914,10.554,15.988,10.971c9.927,0.681,19.432-2.198,28.147-6.784
					C119.77,118.22,117.545,118.472,117.157,118.676L117.157,118.676z"/>
			</g>
		</g>
		<g>
			<path fill="#BBBDBF" d="M91.184,132.947c-16.971,11.534-49.102,11.419-46.612,34.273c0.81,7.437,2.942,13.577,14.481,14.252
				c13.576,0.679,15.386-12.442,6.788-16.968c-5.714,0.34-0.726,5.642-1.652,7.432c-4.979,9.618-18.817,0.406-9.661-12.185
				c9.503-13.574,31.676-4.976,42.539-13.121"/>
			<g>
				<path fill="#231F20" d="M90.675,132.075c-8.008,5.278-17.421,7.79-26.31,11.146c-6.925,2.618-14.186,5.877-18.402,12.257
					c-3.862,5.843-3.178,14.862,0.144,20.772c3.829,6.811,14.941,7.791,21.25,4.489c5.649-2.956,5.769-10.144,2.16-14.645
					c-1.366-1.703-4.366-3.876-6.431-1.76c-2.812,2.881,1.593,6.181-1.405,9.285c-2.119,2.193-5.257,1.326-7.205-0.448
					c-2.275-2.072-2.21-5.462-1.533-8.175c1.709-6.841,8.37-10.494,14.693-11.896c9.302-2.062,19.429-0.055,28.185-4.472
					c0.613-0.334,1.199-0.709,1.757-1.127c1.063-0.736,0.054-2.488-1.02-1.744c-13.098,9.076-38.32-1.836-45.142,17.507
					c-1.896,5.378-0.612,11.825,5.5,13.512c2.267,0.625,4.46-0.348,6.193-1.729c2.562-2.042,2.313-4.117,1.334-6.834
					c-0.636-1.166-0.055-1.946,1.741-2.34c1.171,0.684,2.042,1.744,2.773,2.854c1.246,1.89,1.312,4.226,0.71,6.329
					c-1.732,6.06-9.981,5.797-14.739,4.828c-10.014-2.038-11.657-15.8-7.222-23.39c4.208-7.202,14.086-10.247,21.417-12.882
					c7.716-2.77,15.67-5.247,22.57-9.796C92.777,133.106,91.766,131.355,90.675,132.075L90.675,132.075z"/>
			</g>
		</g>
		<g>
			<path fill="#D0D2D3" d="M213.031,167.333c4.072,19.342-31.677,19.229-26.473,5.093c3.393-2.151,3.4,3.001,5.013,3.71
				c10.53,4.621,17.8-11.649,7.205-16.947c-10.182-5.433-18.327,2.261-29.868-1.132c-8.146-2.036-32.582-19.001-14.934-19.679
				c10.86-0.677,9.73,8.816,24.438,11.986C193.119,153.529,208.418,145.423,213.031,167.333z"/>
			<g>
				<path fill="#231F20" d="M211.93,167.628c1.598,8.872-5.49,13.724-13.6,14.088c-3.137,0.142-6.459-0.579-9.007-2.46
					c-1.116-0.825-1.776-2.044-2.087-3.366c-0.172-0.734-0.058-1.482,0.054-2.21c0.387-2.529,2.231,1.634,2.118,1.413
					c2.778,5.396,11.454,2.022,13.877-2.014c4.555-7.59-0.44-14.122-8.122-16.208c-4.601-1.25-9.579,0.038-14.138,0.796
					c-6.005,0.999-11.471,0.194-16.825-2.559c-2.366-1.217-20.042-12.329-14.149-15.323c4.351-2.213,9.585-0.006,12.889,2.887
					c3.304,2.896,6.354,5.459,10.478,7.146c8.61,3.524,17.958,1.055,26.798,3.006C207.456,154.424,210.412,161.028,211.93,167.628
					c0.227,0.988,2.434,0.411,2.203-0.59c-1.925-8.371-5.899-14.509-14.697-16.072c-9.967-1.771-19.655,0.913-28.9-4.678
					c-3.141-1.899-5.457-4.844-8.488-6.884c-2.965-1.997-6.66-2.017-10.076-1.621c-5.424,0.629-6.482,4.274-3.248,8.287
					c4.345,5.394,11.373,9.551,17.715,12.111c10.972,4.431,23.335-4.337,33.371,2.825c4.371,3.119,3.518,9.488,0.395,13.052
					c-2.382,2.717-7.368,3.082-9.014-0.45c-0.554-1.188-1.109-1.959-2.32-2.413c-5.302-1.989-3.912,6.728-1.851,8.782
					c4.271,4.258,12.174,3.832,17.44,2.208c6.93-2.138,10.977-7.914,9.674-15.147C213.955,166.052,211.746,166.611,211.93,167.628z"
					/>
			</g>
		</g>
		<path fill="#BBBDBF" d="M51.135,151.382c0,0,3.394-2.886,15.16,1.188c5.43-1.13,17.197-2.32,17.197-2.32l20.591-4.297
			l3.167-11.986l-26.926,3.394C80.323,137.359,55.434,147.535,51.135,151.382z"/>
		<g>
			<linearGradient id="SVGID_10_" gradientUnits="userSpaceOnUse" x1="176.2932" y1="139.3232" x2="184.2758" y2="85.439">
				<stop  offset="0" style="stop-color:#A6A8AB"/>
				<stop  offset="1" style="stop-color:#E6E7E8"/>
			</linearGradient>
			<path fill="url(#SVGID_10_)" d="M156.916,127.178c24.437,23.071,47.291-28.17,29.643-33.602
				c4.072,14.934-14.597,8.146-7.807-3.395c2.982-5.591,8.22-5.962,12.782-3.697c3.744,1.858,7.036,5.491,8.261,9.469
				c7.466,21.043-7.523,47.312-27.209,50.705"/>
			<g>
				<path fill="#231F20" d="M155.634,127.769c25.511,23.208,51.191-28.325,31.746-35.069c-0.701-0.244-2.462,0.228-2.215,1.25
					c0.549,2.28,1.451,8.821-2.99,6.854c-2.752-1.219-3.728-4.341-3.403-7.105c0.235-2.009,1.571-4.026,2.796-5.541
					c3.139-3.883,8.157-1.556,11.292,0.572c4.643,3.153,6.269,8.812,7.125,14.038c2.929,17.856-9.32,39.428-27.631,43.022
					c-1.748,0.344-1.244,2.069,0.465,1.734c13.223-2.598,22.906-13.307,27.614-25.493c4.623-11.964,4.644-30.801-8.965-36.818
					c-8.744-3.866-19.896,6.247-14.087,14.885c1.638,2.435,4.933,3.549,7.688,2.665c4.119-1.322,3.691-6.212,2.884-9.562
					c-0.738,0.417-1.477,0.834-2.215,1.25c16.032,5.562-4.574,53.025-27.539,32.134C157.34,125.806,154.708,126.926,155.634,127.769
					L155.634,127.769z"/>
			</g>
		</g>
		<path fill="#BBBDBF" d="M192.328,157.038c0,0,1.017-5.432,10.182-4.072c0,0-10.86-2.376-18.667-1.697
			c-7.806,0.679-21.384-7.467-21.384-7.467l-7.861-1.214l1.074,8.34c0,0,7.467,5.035,12.896,6.732
			c5.432,1.698,11.541,0.681,15.953-0.338C188.934,156.302,192.328,157.038,192.328,157.038z"/>
		<g>
			<g>
				<g>
					<path fill="#E6E7E8" d="M161.781,121.069c-2.036-9.505,1.299-15.614,4.015-24.438c9.504-32.583-19.685-59.735-51.59-44.802
						c-42.086,19.007,11.216,68.865-19.401,75.575c-33.035,7.24-50.162-7.176-56.795-24.664c-2.037-6.787-1.6-26.998,6.335-30.547
						c8.599-3.846,1.357,8.823,5.43,10.183c11.539,3.395,6.79-14.254,1.359-17.65c-8.147-4.749-19.913,2.037-23.986,9.505
						c-9.503,16.291,1.358,47.858,13.577,58.717c12.105,11.192,32.017,14.926,60.98,6.786
						c-31.282,16.089-27.493,49.204-11.88,53.958c16.971,6.446,30.886-1.699,31.565-13.913
						c-0.679-10.183-3.055-16.631-11.879-17.988c-10.182-0.679-12.897,9.503-4.073,13.576c0.679-14.934,10.861-2.716,5.43,5.432
						c-7.466,10.855-22.118,3.587-22.118-5.233c-0.679-10.862,11.936-19.431,21.439-22.827c11.5-4.734,19.687-14.699,19.687-14.699
						c0.699,9.494,5.648,15.34,13.095,21.432c6.787,5.431,30.547,15.951,21.043,23.077c-8.485,6.786-8.824-8.82-16.972-9.501
						c-12.897-0.679,0.681,14.25,4.753,16.287c14.934,7.469,26.541-1.361,25.795-16.287c-0.679-13.576-25.371-13.828-23.675-31.136
						c27.153,9.5,61.489,9.018,73.71-7.266c6.787-10.182,9.653-25.211-0.68-33.602c-11.5-8.942-14.256-23.418,3.051-18.244
						c1.629,0.488,1.701,2.974,5.773,0.256c1.358-10.861-16.772-10.181-22.203-6.108c-12.219,9.505-8.455,14.933-1.667,23.078
						c21.722,24.438-3.622,34.96-20.252,35.639C175.018,136.344,163.213,127.745,161.781,121.069z"/>
					<g>
						<path fill="#231F20" d="M163.64,120.571c-2.354-12.815,5.624-24.095,5.839-36.83c0.169-10.021-3.939-19.635-10.905-26.737
							c-13.791-14.061-36.488-11.996-51.841-1.803C93.39,64.059,94.345,79.214,97.89,93.01c2.311,8.991,11.669,29.794-2.405,33.701
							c-21.797,6.05-45.465-1.256-54.88-22.64c-3.358-7.628-2.216-18.661,0.646-26.213c1.099-2.898,5.897-8.479,5.673-2.396
							c-0.082,2.224-1.458,6.227,1.094,7.527c4.627,2.357,10.366-0.893,10.714-5.784c0.479-6.733-4.179-14.48-11.35-14.719
							c-8.769-0.292-17.575,4.569-22.062,12.091c-5.194,8.707-4.064,20.133-1.898,29.549c3.5,15.22,11.736,29.821,26.366,36.475
							c16.15,7.347,35.626,4.133,52.051-0.369c-0.514-0.167-1.028-0.334-1.543-0.501c-13.805,7.323-25.017,20.388-24.023,36.804
							c0.9,14.878,13.649,21.176,27.435,19.929c6.446-0.583,12.767-3.591,16.679-8.8c4.668-6.216,3.324-16.923-1.476-22.68
							c-3.946-4.731-11.021-4.621-16.189-2.354c-6.916,3.033-4.58,10.452,0.961,13.349c0.675,0.353,3.548-0.179,3.615-1.111
							c0.097-1.339,1.355-5.171,0.517-5.586c1.139,0.563,1.741,2.049,2.185,3.149c1.724,4.273-0.22,8.533-3.423,11.43
							c-4.47,4.043-11.169,0.334-14.163-3.502c-2.817-3.609-1.989-8.672-0.252-12.527c4.601-10.216,16.307-12.89,25.112-17.959
							c5.393-3.104,10.446-7.4,14.431-12.182c-1.229,0.282-2.458,0.563-3.687,0.845c1.04,10.501,7.934,18.3,16.539,23.868
							c6.101,3.948,17.294,8.383,19.683,15.9c0.577,1.816-0.586,3.328-1.897,4.42c-2.088,1.738-3.767-0.819-4.841-2.281
							c-2.094-2.853-3.639-6.09-7.013-7.629c-3.808-1.737-11.847-0.071-10.467,5.305c1.766,6.878,9.325,12.143,15.664,13.953
							c7.007,2.001,15.058-0.229,19.837-5.691c5.257-6.011,5.528-16.157-0.092-21.817c-5.533-5.571-13.752-7.762-17.999-14.725
							c-1.548-2.539-1.851-5.528-1.657-8.426c-1.205,0.37-2.41,0.739-3.615,1.109c19.487,6.665,43.467,9.877,63.108,1.863
							c8.966-3.655,14.942-9.317,18.396-18.454c1.729-4.575,2.299-9.55,1.584-14.38c-0.836-5.647-4.418-9.192-8.481-12.752
							c-3.307-2.897-6.155-6.81-7.104-11.158c-1.378-6.312,6.501-6.229,10.047-3.217c1.54,1.307,4.63,0.292,6.12-0.579
							c3.133-1.831,1.896-5.224-0.435-7.514c-4.428-4.349-13.837-3.225-19.098-1.365c-6.687,2.364-14.508,9.482-11.933,17.18
							c1.053,3.147,3.604,5.873,5.678,8.375c3.168,3.826,6.031,7.621,7.644,12.374c2.534,7.472-1.582,13.832-7.895,17.573
							c-8.103,4.801-18.731,5.388-27.728,3.54C175.084,132.575,165.647,128.136,163.64,120.571c-0.194-0.732-3.912,0.26-3.717,0.996
							c2.259,8.519,12.854,12.53,20.535,14.108c8.499,1.746,17.657,0.44,25.789-2.336c6.568-2.243,13.5-6.356,15.513-13.419
							c2.946-10.338-7.375-18.493-12.321-26.1c-2.585-3.976-2.406-7.892,0.285-11.75c4.06-5.821,10.08-7.926,16.89-6.838
							c4.034,0.645,7.2,3.101,7.371,7.335c0.04,0.992-3.406-0.715-3.924-0.858c-2.035-0.56-4.471-0.935-6.59-0.636
							c-6.426,0.906-9.162,4.625-6.415,10.903c1.69,3.864,4.913,7.071,8.135,9.679c4.944,4.002,6.778,9.853,6.658,16.014
							c-0.312,15.924-12.431,25.777-27.001,28.639c-16.146,3.17-33.786,0.25-49.174-5.011c-0.711-0.242-3.548,0.102-3.615,1.109
							c-0.52,7.785,4.215,12.521,10.262,16.568c5.539,3.706,12.744,7.117,13.413,14.568c0.432,4.811-0.972,9.699-3.866,13.531
							c-4.521,5.987-13.577,4.79-19.211,1.097c-2.797-1.833-5.122-4.66-7.021-7.359c-2.159-3.072-3.513-9.866,2.811-5.989
							c4.377,2.684,5.517,11.219,11.918,10.001c5.05-0.96,9.773-4.994,6.299-10.07c-4.186-6.114-12.51-9.723-18.593-13.575
							c-8.576-5.434-15.311-13.298-16.334-23.639c-0.083-0.838-3.35,0.44-3.687,0.845c-3.464,4.156-7.789,7.704-12.288,10.676
							c-6.084,4.021-13.127,5.888-19.091,10.228c-9.186,6.685-15.155,21.616-1.417,26.884c8.275,3.173,19.531-2.882,19.012-12.259
							c-0.158-2.857-1.918-6.604-5.239-6.253c-4.488,0.476-5.167,4.308-5.447,8.203c1.205-0.37,2.41-0.741,3.615-1.111
							c-2.55-1.332-4.483-3.046-5.143-5.936c-1.204-5.271,5.096-6.913,9.103-5.524c5.935,2.057,7.45,8.682,8.132,14.177
							c2.148,17.301-19.508,21.688-31.495,13.755c-7.01-4.64-8.538-14.503-7.588-22.188c1.628-13.185,11.663-23.337,22.911-29.303
							c1.452-0.77-1.12-0.616-1.543-0.5c-22.678,6.215-50.583,7.56-65.226-14.271c-6.12-9.129-9.68-20.301-10.758-31.181
							c-0.526-5.309-0.128-10.718,1.519-15.802c2.481-7.66,10.313-15.069,18.81-13.934c4.479,0.598,6.672,4.471,8.084,8.297
							c0.854,2.314,2.518,11.959-2.938,9.179c-3.831-1.952,3.626-12.816-4.95-10.477c-7.636,2.083-9.648,9.097-10.607,16.282
							c-1.165,8.729,0.001,16.383,4.594,23.891c10.371,16.954,30.869,20.889,49.256,17.766c5.666-0.962,12.604-1.979,15.863-7.367
							c2.735-4.52,1.282-10.826,0.177-15.59c-3.124-13.468-10.346-28.829-3.557-42.317c5.25-10.43,18.999-15.423,29.933-15.375
							c11.17,0.05,21.426,6.219,27.704,15.234c5.101,7.323,6.798,16.44,6.087,25.206c-0.932,11.487-7.814,20.952-5.64,32.791
							C160.046,122.236,163.791,121.392,163.64,120.571z"/>
					</g>
				</g>
			</g>
			<g>
				<path fill-rule="evenodd" clip-rule="evenodd" fill="#FFFFFF" d="M117.928,97.138c4.173-2.042,9.212-0.316,11.256,3.859
					c2.042,4.17,0.315,9.21-3.858,11.251c-4.173,2.042-9.212,0.317-11.254-3.854C112.028,104.22,113.756,99.179,117.928,97.138z"/>
				<path fill-rule="evenodd" clip-rule="evenodd" d="M126.938,100.058c0.238,1.734-3.59,2.083-4.979,3.262
					c0.962,3.089,3.95,0.28,6.277-0.609c0.613,7.365-4.632,10.03-8.552,8.53c-4.93-1.885-7.929-11.431,1.991-13.541
					C124.336,97.753,125.251,99.069,126.938,100.058z"/>
			</g>
			<g>
				<path fill-rule="evenodd" clip-rule="evenodd" fill="#FFFFFF" d="M140.047,95.608c4.172-2.041,9.211-0.314,11.254,3.859
					c2.042,4.17,0.315,9.211-3.856,11.252c-4.173,2.044-9.213,0.316-11.255-3.855C134.147,102.69,135.873,97.652,140.047,95.608z"/>
				<path fill-rule="evenodd" clip-rule="evenodd" d="M149.055,98.531c0.24,1.732-3.589,2.081-4.979,3.261
					c0.963,3.089,3.951,0.278,6.276-0.608c0.614,7.365-4.631,10.029-8.552,8.529c-4.93-1.888-7.928-11.43,1.992-13.542
					C146.455,96.225,147.368,97.539,149.055,98.531z"/>
			</g>
		</g>
	</g>
	<circle fill="#4E1A71" stroke="#FFFFFF" stroke-width="0.9621" stroke-miterlimit="10" cx="71.063" cy="94.554" r="7.415"/>
	<circle fill="#1C9CD8" stroke="#FFFFFF" stroke-width="0.9621" stroke-miterlimit="10" cx="190.624" cy="101.245" r="7.413"/>
	<g>
		<linearGradient id="SVGID_11_" gradientUnits="userSpaceOnUse" x1="180.5374" y1="93.4707" x2="188.4575" y2="93.2446">
			<stop  offset="0" style="stop-color:#A6A8AB"/>
			<stop  offset="1" style="stop-color:#E6E7E8"/>
		</linearGradient>
		<path fill="url(#SVGID_11_)" d="M186.077,93.265c4.072,14.936-14.595,8.146-7.807-3.394c2.983-5.593,8.219-5.963,12.783-3.696"/>
		<g>
			<path fill="#231F20" d="M184.684,93.638c0.459,1.792,1.475,5.974-0.764,7.142c-1.499,0.783-3.555-1.052-4.387-2.082
				c-1.676-2.075-1.613-4.908-0.67-7.276c1.994-5.001,6.272-6.75,11.104-4.487c0.994,0.465,3.487-0.905,2.174-1.521
				c-4.973-2.329-11.086-1.944-14.363,3c-2.335,3.521-3.491,7.799-0.809,11.466c1.723,2.355,5.133,3.647,7.899,2.476
				c3.812-1.614,3.464-6.11,2.603-9.464C187.167,91.706,184.377,92.447,184.684,93.638L184.684,93.638z"/>
		</g>
	</g>
	<g>
		<path fill="#FFFFFF" d="M189.951,137.022c-16.629,0.679-28.437-7.918-29.867-14.596c-2.037-9.505,1.3-15.612,4.015-24.438
			c9.503-32.584-19.686-59.735-51.589-44.802c0,0,60.189-8.002,43.672,53.092c-4.262,15.761,4.072,36.195,31.224,31.452"/>
	</g>
	<path fill="#FFFFFF" d="M126.539,57.402c-4.072-2.037-28.283-0.679-21.496,28.737c1.131-8.598,0.905-24.891,17.649-23.533
		C129.481,63.739,130.613,59.44,126.539,57.402z"/>
	<path fill-rule="evenodd" clip-rule="evenodd" fill="#FFFFFF" stroke="#FFFFFF" stroke-width="0.6788" d="M153.665,157.83
		c0,0-8.114-3.093-11.372-14.903c-2.716-9.835-5.911-4.406-5.458-2.146C137.287,143.04,143.709,155.115,153.665,157.83z"/>
	<path fill-rule="evenodd" clip-rule="evenodd" fill="#FFFFFF" stroke="#FFFFFF" stroke-width="0.6788" d="M85.323,164.405
		c0,0,2.21-8.396,13.607-12.897c9.498-3.748,3.758-6.347,1.554-5.654C98.283,146.543,86.959,154.216,85.323,164.405z"/>
	
		<ellipse fill-rule="evenodd" clip-rule="evenodd" fill="#FFFFFF" stroke="#FFFFFF" stroke-width="0.6788" cx="109.795" cy="139.537" rx="2.716" ry="2.71"/>
</g>
<g>
	<defs>
		<path id="SVGID_12_" d="M32.841,126c0-52.467,42.533-95,95-95c52.476,0,95.009,42.533,95.009,95
			c0,52.459-42.533,94.992-95.009,94.992C75.374,220.992,32.841,178.459,32.841,126z"/>
	</defs>
	<clipPath id="SVGID_13_">
		<use xlink:href="#SVGID_12_"  overflow="visible"/>
	</clipPath>
	<g clip-path="url(#SVGID_13_)">
		
			<circle opacity="0.42" fill-rule="evenodd" clip-rule="evenodd" fill="none" stroke="#FFFFFF" stroke-width="1.4431" stroke-linecap="round" cx="157.537" cy="44.28" r="5.204"/>
		
			<line fill="none" stroke="#98CEEF" stroke-width="1.6963" stroke-linecap="round" x1="152.631" y1="39.934" x2="144.448" y2="30.934"/>
		
			<line fill="none" stroke="#98CEEF" stroke-width="1.6963" stroke-linecap="round" x1="163.698" y1="43.684" x2="174.448" y2="42.184"/>
	</g>
</g>
</svg>
