<?xml version="1.0" encoding="utf-8"?>
<!-- Generator: Adobe Illustrator 15.0.0, SVG Export Plug-In . SVG Version: 6.00 Build 0)  -->
<!DOCTYPE svg PUBLIC "-//W3C//DTD SVG 1.1//EN" "http://www.w3.org/Graphics/SVG/1.1/DTD/svg11.dtd">
<svg version="1.1" id="Layer_1" xmlns="http://www.w3.org/2000/svg" xmlns:xlink="http://www.w3.org/1999/xlink" x="0px" y="0px"
	 width="246px" height="257px" viewBox="0 0 246 257" enable-background="new 0 0 246 257" xml:space="preserve">
<g id="bg" display="none">
	
		<rect x="-69.5" y="-13" display="inline" fill="#27AAE1" stroke="#FFFFFF" stroke-width="6.6723" stroke-miterlimit="10" width="387.5" height="283.5"/>
</g>
<g id="Layer_1_1_">
	<polygon fill="#FFFFFF" points="22.509,105.522 40.009,99.522 40.009,107.772 21.009,107.772 	"/>
	<g>
		<g>
			<circle fill="#FFFFFF" cx="122.805" cy="139.411" r="89.834"/>
			<path fill="#39B54A" d="M122.805,235.831c-53.167,0-96.42-43.254-96.42-96.42s43.254-96.42,96.42-96.42
				c53.166,0,96.419,43.254,96.419,96.42S175.971,235.831,122.805,235.831z M122.805,56.163c-45.903,0-83.248,37.345-83.248,83.248
				s37.345,83.248,83.248,83.248c45.902,0,83.248-37.345,83.248-83.248S168.708,56.163,122.805,56.163z"/>
		</g>
		<g id="Mopjc0_1_">
			<g>
				<g>
					<g>
						<path fill="#FFFFFF" d="M160.209,42.394c-2.34,0.33-2.367-0.622-3.107,0.058c-10.479-0.844-23.815,3.532-23.43,20.59
							c2.98,24.094,31.281,36.816,39.029,57.566l5.916,35.438l-93.994-32.145c15.641-4.372,54.664,7.615,46.389-12.647
							c2.943-14.328-49.725-64.643-10.355-94.133c10.037-7.519,31.721-8.705,41.303,5.199l7.996,5.738"/>
						<path d="M158.963,39.063c-6.025,0.231-11.572-0.121-17.27,2.533c-6.068,2.827-9.672,9.101-10.354,15.589
							c-1.692,16.092,10.88,29.586,21.203,40.26c5.694,5.887,11.636,11.695,15.806,18.812c2.123,3.625,2.442,7.029,3.127,11.129
							c1.555,9.316,3.11,18.632,4.666,27.948c0.614-0.848,1.229-1.697,1.846-2.545c-31.332-10.715-62.663-21.43-93.995-32.145
							c0.625,2.196,1.251,4.392,1.876,6.587c7.714-1.991,16.144-0.931,23.997-0.568c6.702,0.31,15.006,1.232,21.129-2.17
							c2.113-1.175,3.354-3.343,3.623-5.692c0.166-1.441,0.002-2.852-0.287-4.268c-0.174-0.855-0.473-1.702-0.743-2.53
							c0.591,1.806,0.069,0.486,0.099-0.487c0.172-5.519-3.26-11.275-5.731-15.97c-7.838-14.883-18.369-29.962-19.369-47.286
							c-1.188-20.59,17.8-36.244,37.742-32.781c2.971,0.516,5.778,1.608,8.396,3.083c3.061,1.726,4.51,4.782,7.221,6.727
							c2.664,1.913,5.33,3.825,7.996,5.738c1.295,0.93,2.562-0.019,2.572-1.456c0.012-1.821-1.111-3.46-2.537-4.483
							c-2.389-1.714-4.775-3.428-7.164-5.141c-0.896-0.642-1.26-1.756-2.601-3.062c-1.97-1.918-4.112-3.508-6.507-4.858
							c-8.266-4.662-18.562-4.572-27.396-1.829c-17.754,5.512-24.892,25.028-22.062,41.887c2.819,16.803,12.675,31.472,20.468,46.27
							c1.315,2.5,2.537,5.042,3.433,7.727c0.758,2.278,0.606,4.686,1.233,7.028c1.905,7.108-9.609,7.038-13.837,7.096
							c-10.537,0.144-21.809-2.308-32.163,0.365c-3.257,0.841-0.085,5.917,1.876,6.587c31.332,10.715,62.663,21.43,93.995,32.146
							c1.662,0.568,2.041-1.377,1.847-2.546c-1.412-8.454-2.824-16.909-4.234-25.364c-0.559-3.346-1.117-6.691-1.676-10.039
							c-1.016-6.076-6.348-12.371-10.152-16.943c-9.697-11.648-24.17-21.541-28.193-36.882c-2.064-7.877,1.312-15.818,8.441-19.595
							c5.223-2.766,11.201-2.021,16.176-2.212C164.523,45.606,161.707,38.958,158.963,39.063L158.963,39.063z"/>
					</g>
				</g>
			</g>
		</g>
		<g>
			<path fill="#F15A29" d="M164.6,28.827c-4.557-1.994,0.488-7.935,4.717-5.133c10.984,7.28,15.941,8.965,30.623,10.712
				c1.836,0.218,5.59,1.946,6.435,4.782c2.08,7.013-23.576,9.94-40.744,7.563c-1.332-0.184-6.952-0.77-6.681-1.833
				c1.888-7.277,4.455-11.203,4.011-18.516"/>
		</g>
		<path fill="#FFFFFF" d="M192.667,41.506c-7.505,0-14.104-1.159-19.455-2.099c-1.519-0.267-2.929-0.515-4.218-0.709
			c-0.492-0.074-0.831-0.534-0.758-1.026c0.074-0.492,0.527-0.833,1.027-0.757c1.301,0.197,2.725,0.446,4.26,0.716
			c8.305,1.458,19.678,3.457,32.66,0.674c0.489-0.104,0.967,0.206,1.07,0.693c0.104,0.487-0.206,0.966-0.691,1.071
			C201.672,41.117,197.018,41.506,192.667,41.506z"/>
		<g id="TaoKiz_4_">
			<g>
				<g>
					<path d="M143.051,22.831c0.963,0.338,0.166,2.539,0.43,3.622c1.865,0.302,1.16-2.1,1.289-3.622
						c4.019,1.648,4.068,5.252,2.273,7.006c-2.25,2.206-8.018,1.287-6.578-4.744C141.176,23.642,142.1,23.495,143.051,22.831z"/>
				</g>
			</g>
		</g>
		<g>
			<g>
				<path fill="#FAD1E3" d="M8.079,145.336c0,3.323,2.719,6.042,6.042,6.042h216.732c3.324,0,6.043-2.719,6.043-6.042V110.42
					c0-3.323-2.719-6.042-6.043-6.042H14.121c-3.323,0-6.042,2.719-6.042,6.042V145.336z"/>
			</g>
			<path fill="#39B54A" d="M230.811,155.378H14.163c-5.592,0-10.141-4.485-10.141-10v-35c0-5.514,4.549-10,10.141-10h216.647
				c5.592,0,10.141,4.486,10.141,10v35C240.951,150.893,236.402,155.378,230.811,155.378z M14.163,108.378
				c-1.099,0-2.028,0.916-2.028,2v35c0,1.084,0.929,2,2.028,2h216.647c1.098,0,2.027-0.916,2.027-2v-35c0-1.084-0.93-2-2.027-2
				H14.163z"/>
		</g>
		<g>
			<path d="M44.017,114.899c4.004,0,6.997,1.64,8.889,3.399l-3.563,3.64c-1.408-1.2-2.772-1.96-5.237-1.96
				c-4.444,0-7.569,3.16-7.569,8.399c0,5.359,2.684,8.479,8.053,8.479c1.188,0,2.376-0.279,3.08-0.799v-4.479h-4.752v-4.799H53.39
				v11.998c-2.024,1.761-5.588,3.16-9.593,3.16c-7.745,0-13.906-4.599-13.906-13.357C29.891,119.938,36.228,114.899,44.017,114.899z
				"/>
			<path d="M68.126,115.379h6.469v21.117h11.354v4.959H68.126V115.379z"/>
			<path d="M96.77,128.297c0-8.519,5.281-13.398,13.025-13.398c7.746,0,13.026,4.919,13.026,13.398
				c0,8.52-5.28,13.639-13.026,13.639C102.051,141.936,96.77,136.816,96.77,128.297z M116.176,128.297
				c0-5.199-2.464-8.319-6.381-8.319c-3.916,0-6.381,3.12-6.381,8.319c0,5.239,2.465,8.559,6.381,8.559
				C113.712,136.855,116.176,133.537,116.176,128.297z"/>
			<path d="M152.564,141.455l-5.502-9.398h-3.563v9.398h-6.47v-26.076h10.343c6.071,0,11.045,1.92,11.045,8.119
				c0,3.839-2.022,6.279-5.104,7.52l6.514,10.438H152.564z M143.499,127.377h3.345c3.389,0,5.236-1.32,5.236-3.879
				s-1.85-3.439-5.236-3.439h-3.345V127.377z"/>
			<path d="M172.934,115.379h6.469v26.076h-6.469V115.379z"/>
			<path d="M208.443,135.256h-8.758l-1.76,6.199h-6.602l8.979-26.076h7.789l8.977,26.076h-6.864L208.443,135.256z M207.124,130.657
				l-0.66-2.399c-0.793-2.6-1.584-5.679-2.332-8.398h-0.177c-0.704,2.759-1.452,5.799-2.244,8.398l-0.704,2.399H207.124z"/>
		</g>
		<g>
			<g>
				<path fill="#F7941E" d="M148.795,201.295c3.75,16.5,3.25,30.25-3.75,44.75c4-7.499,3.037-9.293,12-11c5.25-1,17.25-1.5,22.75,7
					c-2.25-4-7-8.25-5-12.75c3.5-7.5,10.5-7.5,16-8.5c-11.5-0.5-10-0.521-21-1c-11.5-0.5-16-11.999-17.75-19.5
					c-0.5,2-3-0.999-2.502,1.5"/>
				<path fill="#EF4136" d="M146.863,201.812c3.328,15.192,3.043,29.931-3.616,44.189c-0.802,1.714,3.024,1.188,3.599,0.086
					c1.229-2.361,2.231-4.884,3.699-7.111c1.693-2.57,5.835-2.871,8.607-3.205c7.107-0.854,14.556,0.996,18.851,7.031
					c0.751,1.057,4.427-0.146,3.587-1.515c-2.957-4.82-7.326-8.726-3.527-14.427c2.701-4.057,8.147-4.258,12.472-4.992
					c1.233-0.209,3.513-2.062,1.013-2.174c-7.572-0.332-15.721-0.041-23.195-1.275c-8.604-1.421-12.568-11.23-14.373-18.643
					c-0.332-1.363-3.262-0.279-3.729,0.476c-0.132,0.21-0.263,0.421-0.396,0.632c0.688-0.343,1.375-0.687,2.062-1.031
					c-1.984,0.306-4.381-0.478-4.303,2.459c0.033,1.232,3.902,0.467,3.863-1.035c-2.457,0.296-2.988,0.561-1.594,0.793
					c0.491,0.121,1.02,0.005,1.508-0.069c1.184-0.183,1.838-0.672,2.455-1.663c-1.244,0.158-2.486,0.316-3.73,0.475
					c1.881,7.729,5.455,15.547,13.145,18.896c4.133,1.799,9.168,1.328,13.564,1.547c4.406,0.221,8.812,0.445,13.223,0.639
					c0.338-0.725,0.676-1.449,1.014-2.172c-5.666,0.961-11.192,1.6-15.508,5.77c-6.268,6.055-1.062,11.583,2.451,17.312
					c1.195-0.506,2.391-1.011,3.588-1.516c-5.182-7.28-14.447-8.562-22.768-7.561c-3.352,0.402-6.969,1.201-9.807,3.102
					c-3.002,2.01-4.188,6.129-5.771,9.173c1.198,0.029,2.397,0.058,3.599,0.086c6.864-14.696,7.315-29.634,3.883-45.312
					C150.432,199.432,146.557,200.415,146.863,201.812L146.863,201.812z"/>
			</g>
			<path fill="#F7941E" d="M158.133,235.1c0.873-4.877,1.311-10.096,3.334-14.666c-1.242,0.332-2.484,0.666-3.727,0.998
				c5.121,7.113,12.201,13.445,18.709,19.271c0.916,0.82,4.496-0.643,3.609-1.438c-6.51-5.826-13.59-12.158-18.709-19.271
				c-0.688-0.953-3.354,0.152-3.728,0.998c-2.022,4.57-2.46,9.789-3.334,14.666C154.059,236.947,157.924,236.261,158.133,235.1
				L158.133,235.1z"/>
			<path fill="#F7941E" d="M178.305,224.316c-2.959-0.584-5.729-1.601-8.764-1.78c-0.874-0.052-2.055,0.303-2.542,1.088
				c-0.495,0.797,0.419,1.226,1.081,1.265c2.725,0.161,5.234,1.133,7.895,1.658c0.928,0.184,2.035-0.064,2.73-0.732
				C179.288,225.258,179.139,224.48,178.305,224.316L178.305,224.316z"/>
		</g>
		<g>
			<g>
				<path fill="#F7941E" d="M116.954,203.962c-3.75,16.5-3.25,30.25,3.75,44.75c-4-7.499-3.037-9.293-12-11
					c-5.25-1-17.25-1.5-22.75,7c2.25-4,7-8.25,5-12.75c-3.5-7.5-10.5-7.5-16-8.5c11.5-0.5,10-0.521,21-1
					c11.5-0.5,16-11.999,17.75-19.5c0.5,2,3-0.999,2.502,1.5"/>
				<path fill="#EF4136" d="M114.99,204.085c-3.407,15.558-3.033,30.554,3.782,45.146c1.23-0.465,2.463-0.93,3.693-1.394
					c-1.6-3.073-2.734-6.637-5.456-8.924c-2.562-2.152-6.847-2.647-10.027-3.03c-8.365-1.007-17.566,1.033-22.663,8.195
					c1.089,0.423,2.179,0.846,3.269,1.27c3.546-5.779,8.057-10.139,3.661-16.738c-3.414-5.125-10.157-5.697-15.648-6.629
					c-0.265,0.994-0.53,1.99-0.795,2.985c4.409-0.192,8.815-0.414,13.222-0.639c4.522-0.231,9.56,0.188,13.805-1.659
					c8.105-3.531,11.852-11.679,13.835-19.827c-1.242,0.333-2.483,0.666-3.726,0.999c0.406,0.654,0.701,1.116,1.508,1.24
					c0.358,0.078,0.721,0.115,1.088,0.109c2.363-0.148-0.301-0.412-0.296-0.602c-0.056,2.119,3.878,1.621,3.928-0.246
					c0.026-1.004,0.081-1.531-0.804-2.093c-0.408-0.26-0.842-0.372-1.328-0.341c-1.184,0.074-0.698-0.021-0.572,0.182
					c-0.917-1.473-3.395-0.359-3.726,0.999c-1.818,7.474-5.399,15.595-13.538,17.638c-3.593,0.902-7.883,0.493-11.599,0.687
					c-3.833,0.198-7.667,0.382-11.502,0.551c-1.804,0.079-3.147,2.586-0.795,2.986c3.818,0.647,7.662,0.969,11.017,3.084
					c7.348,4.634,2.184,10.851-1.003,16.047c-1.307,2.131,2.171,2.812,3.269,1.271c4.391-6.17,11.892-7.246,18.954-6.396
					c2.768,0.333,6.241,0.854,8.262,2.964c1.918,2.004,2.881,5.253,4.139,7.672c0.77,1.479,4.436,0.196,3.693-1.393
					c-6.707-14.361-7.07-29.048-3.718-44.355C119.356,201.837,115.389,202.264,114.99,204.085L114.99,204.085z"/>
			</g>
			<path fill="#F7941E" d="M111.469,237.527c-0.873-4.877-1.312-10.094-3.334-14.666c-0.506-1.144-3.191-0.174-3.711,0.549
				c-5.051,7.017-12.037,13.281-18.452,19.025c-1.605,1.438,2.234,1.159,3.045,0.434c6.6-5.909,13.776-12.311,18.966-19.52
				c-1.236,0.183-2.475,0.365-3.711,0.547c2.022,4.571,2.46,9.789,3.334,14.666C107.808,239.693,111.694,238.775,111.469,237.527
				L111.469,237.527z"/>
			<path fill="#F7941E" d="M88.894,229.159c2.633-0.521,5.105-1.46,7.804-1.62c0.751-0.044,2.003-0.528,2.178-1.377
				c0.188-0.915-1.134-0.977-1.699-0.942c-3.062,0.183-5.869,1.23-8.853,1.819c-0.613,0.121-1.867,0.759-1.646,1.578
				C86.912,229.49,88.28,229.28,88.894,229.159L88.894,229.159z"/>
		</g>
		<g>
			<g>
				<defs>
					<polygon id="SVGID_1_" points="-1.986,273.045 206.193,273.045 206.193,155.646 67.659,155.508 71.977,130.712 0.567,147.243 
											"/>
				</defs>
				<clipPath id="SVGID_2_">
					<use xlink:href="#SVGID_1_"  overflow="visible"/>
				</clipPath>
				<g clip-path="url(#SVGID_2_)">
					<path fill="#FFFFFF" d="M134.02,131.792c-11.082,2.599-22.908,4.547-33.255,8.444c-12.562,5.195-22.17,14.287-34.734,19.483
						c0-3.247-1.242-12.78-1.242-16.026c-6.164,7.302-6.633,8.461-9.59,12.574c-3.941-3.029-2.225-3.908-3.945-6.939
						c-1.48,3.898-0.74,8.443,0.738,12.341c-2.957-1.299-6.652-0.649-8.869-1.948c0.883,3.49,8.748,8.262,10.346,12.557
						c4.188,11.259,9.545,17.895,15.768,23.814c11.824,11.041,17.242,12.559,34.834,16.122c8.4,1.7,31.381-0.641,38.428-2.603
						c15.91-4.426,30.957-14.963,39.086-28.602c0,0,21.879-25.96,1.027-51.49l-47.85,3.571"/>
					<path d="M37.737,159.107c1.543,3.156,5.35,6.914,7.67,9.257c3.519,3.558,5.342,2.911,8.938,8.995
						c4.453,7.541,7.43,14.869,13.578,20.479c10.045,9.166,19.443,15.692,31.771,18.218c26.193,5.365,63.75-3.046,82.021-28.152
						c6.426-8.831,13.76-19.09,13.832-31.438c0.059-9.969-4.6-29.703-15.613-28.882c-14.623,1.092-29.248,2.185-43.873,3.274
						c-1.906-0.955-4.664-1.397-5.646-0.83c-12.158,2.748-24.639,4.656-36.264,9.877c-8.598,3.861-18.701,11.021-26.967,15.754
						c-0.291-3.143-1.4-9.62-1.541-12.778c-3.596,1.42-8.137,7.101-10.102,9.735c-1.258-1.627-8.551-7.688-9.074-5.477
						c-1.004,4.231,0.051,8.188,1.104,12.006c-1.426-0.264-2.852-0.533-4.113-0.914C43.147,158.139,36.881,157.357,37.737,159.107z
						 M45.612,162.555c1.473,0.286,5.57,0.492,7.109,0.883c0.508,0.129,3.688,0.652,3.186-0.948
						c-0.506-1.614-3.588-5.929-3.789-7.438c1.643,0.689,6.111,3.828,6.818,2.827c0.93-1.312,2.34-6.21,3.283-7.493
						c0.125,1.479,0.938,6.59,1.006,8.076c0.109,2.475,1.562,5.107,6.062,3.098c10.012-4.47,18.85-11.511,28.621-16.539
						c10.082-5.188,20.918-7.459,31.704-9.731c-0.098,1.086-0.197,2.171-0.297,3.257c-0.215,2.314,7.067,4.605,7.936,2.52
						c1.266-3.049,2.883-5.905,0.555-6.012c0.002-0.019,0.004-0.035,0.006-0.053c1.021-0.078,2.041-0.154,3.062-0.23
						c5.469-0.408,10.941-0.815,16.41-1.225c7.838-0.585,15.674-1.17,23.512-1.755c22.814,35.13-19.23,72.74-46.609,77.033
						c-16.729,2.625-38.389,5.19-53.46-5.871c-7.863-5.769-15.836-13.216-20.381-22.992c-1.779-3.83-2.99-8.188-5.877-11.103
						C52.454,166.82,47.385,165.004,45.612,162.555z"/>
				</g>
			</g>
		</g>
		<path d="M75.53,166.585c0.547-1.72,2.146-2.274,3.221-1.801c0.816,0.36-9.121,12.194,18.84,12.042
			c1.768-0.01,1.272,2.656,0.604,3.676c-1.312,1.999-1.938,4.291-2.764,6.507c18.912,0.14,40.783-13.93,43.986-16.298
			c-3.713,9.38-20.244,19.038-47.877,21.23c-2.055,0.162-2.109-2.277-1.164-3.721c1.354-2.063,1.979-4.44,2.846-6.723
			C82.631,179.982,70.85,181.368,75.53,166.585z"/>
		<circle fill="#39B54A" cx="80.795" cy="89.378" r="3.375"/>
		<g>
			<circle fill="#39B54A" cx="31.795" cy="69.045" r="3.712"/>
			<path fill="#FFFFFF" d="M31.795,73.308c-2.351,0-4.263-1.912-4.263-4.263c0-2.35,1.912-4.262,4.263-4.262
				c2.35,0,4.262,1.912,4.262,4.262C36.057,71.396,34.146,73.308,31.795,73.308z M31.795,65.883c-1.744,0-3.163,1.418-3.163,3.162
				s1.419,3.163,3.163,3.163c1.744,0,3.162-1.419,3.162-3.163C34.958,67.302,33.539,65.883,31.795,65.883z"/>
		</g>
	</g>
</g>
</svg>
